<mxfile host="65bd71144e">
    <diagram id="lNGKgEBQwQIuY8TJ-7Qr" name="Page-1">
        <mxGraphModel dx="1599" dy="719" grid="0" gridSize="10" guides="1" tooltips="1" connect="1" arrows="1" fold="1" page="0" pageScale="1" pageWidth="850" pageHeight="1100" math="0" shadow="0">
            <root>
                <mxCell id="0"/>
                <mxCell id="1" parent="0"/>
                <mxCell id="2" value="" style="edgeStyle=none;orthogonalLoop=1;jettySize=auto;html=1;shape=flexArrow;rounded=1;startSize=8;endSize=8;endArrow=open;targetPerimeterSpacing=8;curved=1;startArrow=none;" edge="1" parent="1" source="24">
                    <mxGeometry width="140" relative="1" as="geometry">
                        <mxPoint x="-77" y="157" as="sourcePoint"/>
                        <mxPoint x="158" y="157" as="targetPoint"/>
                        <Array as="points"/>
                    </mxGeometry>
                </mxCell>
                <mxCell id="19" style="edgeStyle=none;curved=1;rounded=0;orthogonalLoop=1;jettySize=auto;html=1;endArrow=open;startSize=14;endSize=14;sourcePerimeterSpacing=8;targetPerimeterSpacing=8;exitX=0.25;exitY=1;exitDx=0;exitDy=0;" edge="1" parent="1" source="13">
                    <mxGeometry relative="1" as="geometry">
                        <mxPoint x="37" y="164" as="targetPoint"/>
                        <Array as="points">
                            <mxPoint x="-66" y="270"/>
                            <mxPoint x="9" y="236"/>
                        </Array>
                    </mxGeometry>
                </mxCell>
                <mxCell id="3" value="branch :(&lt;b&gt;master&lt;/b&gt;)" style="text;html=1;align=center;verticalAlign=middle;resizable=0;points=[];autosize=1;strokeColor=none;fillColor=none;" vertex="1" parent="1">
                    <mxGeometry x="-117" y="158" width="109" height="26" as="geometry"/>
                </mxCell>
                <mxCell id="6" style="edgeStyle=none;curved=1;rounded=0;orthogonalLoop=1;jettySize=auto;html=1;endArrow=open;startSize=14;endSize=14;sourcePerimeterSpacing=8;targetPerimeterSpacing=8;" edge="1" parent="1" source="4" target="3">
                    <mxGeometry relative="1" as="geometry"/>
                </mxCell>
                <mxCell id="4" value="git init" style="text;html=1;align=center;verticalAlign=middle;resizable=0;points=[];autosize=1;strokeColor=none;fillColor=none;" vertex="1" parent="1">
                    <mxGeometry x="-87.5" y="4" width="49" height="26" as="geometry"/>
                </mxCell>
                <mxCell id="7" value="git config&lt;br&gt;&lt;br&gt;name&lt;br&gt;email" style="text;html=1;align=center;verticalAlign=middle;resizable=0;points=[];autosize=1;strokeColor=none;fillColor=none;" vertex="1" parent="1">
                    <mxGeometry x="-192" y="-16" width="66" height="70" as="geometry"/>
                </mxCell>
                <mxCell id="16" style="edgeStyle=none;curved=1;rounded=0;orthogonalLoop=1;jettySize=auto;html=1;endArrow=open;startSize=14;endSize=14;sourcePerimeterSpacing=8;targetPerimeterSpacing=8;entryX=0.55;entryY=0.95;entryDx=0;entryDy=0;entryPerimeter=0;" edge="1" parent="1" target="17">
                    <mxGeometry relative="1" as="geometry">
                        <mxPoint x="285" y="-151" as="targetPoint"/>
                        <mxPoint x="412" y="188" as="sourcePoint"/>
                    </mxGeometry>
                </mxCell>
                <mxCell id="13" value="" style="shape=image;verticalLabelPosition=bottom;labelBackgroundColor=default;verticalAlign=top;aspect=fixed;imageAspect=0;image=data:image/png,iVBORw0KGgoAAAANSUhEUgAAAOgAAAGVCAYAAAD0Yr3TAAAgAElEQVR4Ae2d+btWxZXvzx8DnIHxMB/gqIAog4KiIhEEPICAIAIaNQYHBj12RxPJREwkqIlJyKjpKJqOertvzM3Qz9OaG0x3P+l7Nffep2+6n+7Of1D3rqr9rVpVu2oP73DOO6wf3qfmYa9an72qau+39sCMwVHVzG/m0EJdnlz4qT6EeVwYz/N0gr8ZOUjZ5vRI5BeX30CzggnBQn08PhbH0zvBjz5yF/3iceKPK5LIpT1yaQrQlAIjnlwaOB6eDv+MzLqHbc8YNP0T5WqPcolcm5drLUABXAgdH4gQgubCi9TMIfzMFLpufQRhrEwMTuTj1yP+5pVMZNi4DCsDGiovwuRiAHhcc35ASS4BxsOIi4OHdtGnEFCypi7NCS5fzqXF8kucyGcqdGBgeN6YKvuNzF+h6Ef54Icbi0NaY+5KNXuB+zVSx/A809+wbP46zTXl48tlImVERlOhAx6gUGjeMOJS7nAGbyq9evxKNTKffoAr5Ud63qV+u/IunV+P+AWsbtKBQkBjyt7aOAZlZjVHFiAOrgPNB5jHF/u7aUCkr3ID4TqgASXoeCT8RTA2ZjlD6FYqA+QKf1qrIS2GrqhvPA3XIq4ofjfqwADWa7zzXMFb5weMBCnBZ9aZBKi/5kS6A5TS6/aDX4/4Bc5u1YHoFLcuDIX5sykrINQWk0EJUBuBMNUuHwzKw8PiF1i7SQcsoCllby7et44aQgangTKzpHZzCJbTWU0SaJV+cMEjP48Tv8DZbTowAEVumRsACMsJl1tMA+gKuw6N9YEEGosP46oInspUySd5BORO0YEWAZqtL/kObCmoxlJaSHMWFJbUuSS0RsDsFGFLPwT8ujqgAY0pfghCUVhDFqw1YTG5a+qgqWu4YeQgjLVDG1nmwvx8ZReLusrySbqA06k60BygC8zjEQDHYQz9BAvidH7PYrr1JqCC6wRXHU6UJdeVFyUUWXSfDjQ2xQ2mr+G6kkCMxZn4FWrkmV+oDz78WP3293/Uvw8uv5ifumq4VqiRI2+oX3z4sfrg12+o/VmcVrTPvKfev/KR96M6P/jwQ/XiEQMz5XvyDT+PK/OeejLxmqMt86vX1b5EHlH27lP2bhyzOKDL96mnvvI5tXe5b7VGMosJS8jdGz51QT3/xHZnJRnEZMlicBqgCCoD4N0a7MzqzX9SvfjrjzWAlP5+CIsGNCurwTR+APijzxgFsrAFMJt8cUhtmbBNgVVmJFOsA3FAN59RL/30HfXuj593kDLgOJjkv+H4BfXau++qV7/6oLohyMffFBqZ/6J6NbOcsJr7v/GhsaLM8iHf+1digGY3jcwKk8W8eDi7mx9+Xb0HEN+4qJUpBpuNu/KRAsj87mrTBVABcoqB5HpI/jigtD4kSN98R73z2lfU3rH880xAyuHcxNaZxmK6qa5eF2K6+uHH6tVnDGizF7ykoSUr+d7LT2ZT3RfVj658pN57+ax66rKzsDTFtevLDND3r1xxgM47qy7+KpvSZnBFYWPTYwFUpqohFJ0UTgOaQfryW+9qS7ovAqmD85NqU/bqHsAFSAbUvNV76V7s5D7poMqsHgkI5QlQPR391Rtqn93NHVPDFjIGaCULyiC+IlPcTlJG6Uv+ZhkB1O2oati2nFUxSFccfl5Pa1/72oMqbzlhHV1dBNz+b/xeffDhH9UHH/5CPZVZw+F5Z/VaU69DI5tFZAGxRvU2bCygsU0gB621oJj6MjdmPUlJbBmZ4soUt2OnuNwibnlcXbzsLKmF8/wJNZZt7GDXlkCk55ahJdUWEevGK26ndfaCpyygv/gGprgGcILFWdBgRzUFaACVhY2BSRY5BacAmr+Li2WbPpkEFhQWL7LmzCB954031eV331WvnT+hVlg42S7t/BVqzugqDSgNLKaqHqCRDSGykgCUK4QFLAAvOsWN3O3C8vtevmIfzcQhZVNgNuXmfRL/9Clsv8neAxRWL+kSpD/+a/X9LwJOBzRApLLkJ0GaOOQhq2h2cfl0lnZxdTiDNhyAEDCbbi2om87aNAZqvjwD0K5BL6qLL5810zlbr9mkitUpcQLoVOmABTQJZfbYJPY3MUAJN4QTYaSTS0CaZ5DBM8zLL0bXO+VT3LqAjqnh3GbSRb1rbPqFNW18A2mqBkbakZsA6YAGtBROvh4FsN75QW6KS5WiPigZgWnepzVrS2c1DaQ0tUVeuKZMwYaNtXQNADpvTPGp7nsv/8wHNJxOM4uM/okrAE2FDgwApiKXYEE6+cMfpSEOftN5PtXNl0OZ2IVSWixe4gSMftKBQkABkIHOQYh4cjmQiCcBwl/mhsKm/GGchAXKftWBJKAAqyqcXIAoW+Ty/OIXAEUH4jqQAxTPMwEmuSS8FGz4rybSw7yxMB8MKsfD4o8PlMilP+USARTTVn9Ki6ksQDRguXUlVyCeh/tjeXic+PtTCWXc0+PuAUrWkwMFP8EJQEmYiIcLASMcukiHi3SExU0PkMimv2VjAQU0cGnqSn4DpgGXlAXp5GJ6G8b7eZyAEc+VztTj8vA08Ytc+l0HNKDccgJMA5OzqCQoAAaoeBh+CJSHkR9pcHkexIkrUIoOOB2wbxIBliouBMjzUhwPkx/5QpfnC9Mk7AZHZCGysIBCGTg8MX+YLwyXgYn84oryiQ6U68BA+OFahIvc8MOlPG+YRmGkx9IkTj6EKzqQ1gENKIcIMMVcLsgwnaeF9YVpEk4PiMhGZMN1YIACIWyxMC8US0/F8XLiF+UTHainA9qCzhpeZCElAXLYIFAeV+ZHmapuWF/VcpKv3mCLvLpPXnYNGkKCMA0q/FPhihJ1nxLJmLVvzJKATjWYBL8MdPsGWmTbnbKtBSgf5CJryvORH/AVlYmlhfVIuDuVTMat8XFLAgpgQuEivt1u2G5ZmPqzYPE1asnYOv1buHSNmjm0qJJVprJl9Ut640omsmtcdqWAQnkBJG0o8U0lxJOLtNC1eTYcV5+6d2tuTRsbQFumAjyLlq1Ve/Y/rA4eOeX9Ju5+RI2NbxL4BhtXkNjYSNzUybMSoByWqv5wEGcOrVX3feUN9c47r6kvH7m5pdDs3H1Cg7lj93G17Y6j+nf7zvssrBtvvNNOs8N+9XN4zZmT6sLlY2qXANxSfWylTg2E1pAqL4OwbgdcfVvVPV95TUN6PrOkaK9uncg/a3ixBnH33ofUjEF/qrpyfJPad/BRnb5951G1bsP26G/1ulvV3NHxjh0kXGurXQF06ixho2OnLSgVdhAtzPkbrTwsZ9rwIY21HZYrCg/PXa4B3Lnn/ihgBB5Z1nD6G4YPHH5Crbr6xmgdRe13c5oA2iWAAk6sHREOlQ/xKTfMH4ZdOQfpuf1X5W4IlC8smwoPlQBK5ag+WoumLOimLbuNFZ54sHK7qf50U7wA2iWAxqa5UDTAArgQTy7iUm5x3qvV/i+a6S5ByvPW8Q/PHSu0oFXrWr3uNg0wrrdqOZdvtTp+aVJduDSh1uTWdFna+a3ZdW5Vpy9Pqgvsd/pIqCz5POfOrPbldOSYVwfVl6/H1GtgZG2e36pSgMbyuusM+ynhdsomtwatq6A8fwrUdPzVat8XXlVvv/2qKoKUtxEKwwJ6V3yKG+ZvZ9go9kl1fHOgtJsn1DnAk/k92I4c88HKwPPyDG5Vxxmgu84TbEFb0XKjKpbXxFEd/iaRiedx2Y0ieuMJrjN3Y5L0ZvWtJbu46EQaxPy61kG3Xj38jbfV2z/+krojGGBeH9ogF/HkJ0AP3Xta7WwQ0IXjm9WWvU+pWw4+q6664W7fQgX94X2I+mPwDQIQo/Qpq+XqM0D4cAaKnoEYs5a5m0Qyb2bVOaA6bwA9ySAVX1c+kr+2frUEUACTckn54mkr1Z5zNM19Q33tfvPoJZ7PrUmRDoVuBlAC8+wP/uz99j7xam0hoi8zBmPT3AC4JDAZhBVg0FYuZdG4tcbNIZE3vFmk6w2uQUBrQkeCm22JLNsCaBpIY0mNQq9Qu5+j6e3rteEkSAFFo1PcFdft8sDkoG47+mVbP9qp7IaAhWFAnK0/QyuYn2KGAxquZ8N0DlNxXh9QWFS2TmVrZFrfFlr1EkWrLD+px9M9DWi4ScQBIMHCasGNCzs+jUUZuKZsMZy8zbAtqofHNQrojgcuJgF95OIfvDZ4e+V+Dkg2vY1aMJPPbBS5NV/aigHEYuhmDPL2i/NGAbUbWWhP3PIxb5+M2mJBfRgNUIibOYRp7U/Viyfjr/0hbxXBjMxb0dAalKay3Gpy/5nv/2cTgHIoOSyJQcympBcyMHxo4mUKIa4xxQ2tdWG9Ytma0okquhzLowGNJfiQEGR1LKRvdal+U191OCk/+uX3xSgt4mbNXqwO3XtK0Xu3vAzKptxbDn02Ceixz//Gtp0qXxiPae0ZegzirGO8TGblYGUTG01eWV1//JFKCLgJRzZ+Mkvr9a+gXq99gbU5/aghP33kCYQfKjgg8F13+oLLXwXeNJxon1xXpw9iUfyttx/Sz0J37D5h38W17+TuuM+LGxvfqIU7svBq9cjFf45Cet22ii8sZAqdX5tllvPSSQXLiGskYLx1Z2DxKJ+BKgBw84Q6XfExi1e/XfPyG4W5KZyj/nk3kOxmET6+IZhxA6mhXLhmceMzoSpyyU1x8TZRyh0cWazo/dcw3Yc4Duy87U+rp4NpLTrJyxfFIY27dNTnjj33R1/no0cw/LW+q9fiZYFRtWz1NnXvM39jIaW158Y7H6t+d0wCikcrAWQMvuKXFPBow9+w8cFzILu6YpaSlAPgufqortDaQqZm6uvyUv1h28grbuPwVZGd3SQKgeNhC48+u4hZ0OyvZzwv99tyQ3FgKZ06WZav6EJ4HfR/0KUrrrP/CcV/Q7lLa9awvvnLrlcLx7fk4sN8Em6vMop88/LNWdAiWGZUBIr+KF0X1Fi7qQEL86bySXx+wEUm3SWTWoACDMCHcMwlReDxVcrw/GF5nga/KFt3KZuMV/3x8gAFRHABAlnEmfYkBTbF1VPXMOyms6iHu65OP18snuJSoMpg1x9skVn3ySz6snwKFg4a9yO/i/M3kZAeusgfxsegrKpcVFfVvJKv+xS238as0IICoFl659atK7VFDTZ+bN7gEGwSaAhg3XBsUFBHrP5YfokTGLtRBzSgHK6YHzDkXQctlaN0fuwIhcP6eB0QGI8L/cgTujxfmCZhgbFXdKB0iksXymEgv4aOWdUwvWgXlwsO5WJtII1clEnFIV1cAbPXdMCb4nIAyA/rFwLn4t1GD8oijVyKI4FxF/mK3JiQi/Kj/lg5iRNou1kH7Ad86W2c2QtW6t+c0VWKfhT2P+Jr0v14F4fy3kd85/tf3tYfbQ3i0Ab/oCviUi7PK/7yD8GKjLpTRgMLV2xQ9Fu0cqP+ITw6tl7Rb+EKE0/pi1dtyvK4OIpHGbimrKkXcZ67Mp/m2suneWWz/iK/uGacRA69KQcLaAgBgFw8foOF18Do4AzLhOHRFRsyyKtBF5anMCke4qGEiEdY3N5UThnX9SoD1FlBgtDCuWqTtqAEhIHTgQbhAR6ytPADTMqDsmF5tIMyVVy0Ka4A2S86MGDA4VaR+w2QgAmQjY45UDlYIZgcTl4H6uFlq/j7ZVDkOuUGBB3QgIbw8LBbd6ahDOHi5UM/8qIDCKdcykdpyC+uKG8/6UApoAaOBJzBFJZgJKDxA5wL7UaSUS4LY2SzyKZlm0EI99OgyLXKTQg6kAPUAGGmueSnaSsgIeAAG2CEG0Jp4cSuq64La1JXp26DbQShLXQQYeRDfOjSGnjVmlvUVeu26d/42tv0+jnMJ2FR/m7SAQsoQABwHESKC9Mx9UV+k8eBTWGUI4FQ+UU1LCbag1sk1NXrP6H2HXrMOzmBTlHYe/CkWrPhDpkeZ4/MimQoaZ1547KAAihAZcBwkJl08xyU5+X5eTwHC37nGmBd2LeoPL6K4uATg3v2fUrdsft+/bvzrk9aYG/adqi969jjb6r3rnyk3qffr99Uh8ZeUa+R/81X7M3h0Lc+VO9f+aV6WmCxMqkytv2eRz9mAVj8UQniilxYWQIK+ThciA/j6oTLBmjxyk0axL0HTiraXeb51268Q+3PLOuOPQ+oG7bui/423HSXnh7zspX9GZzvfesZ1rYAWll+csNiepO34lELCti4C6iK4sI8CDfjlg300vEbNaD0Ad9Y3rFrblJ3TjxorSk/QCz0E8CxOgrjnvulev/Kh+ql43nh8nJiQYvlw2UlfierAb6WBEgOQrzaR1NQM91FGs9LfsTDpbjRsQfUp779lvqLnS4d5eDSYMBP7vgnX1ffv/iMWlXxzrqkBFAz2Bv0WjRlQW/ZfkQDvP+exwTQinIXiBxE7ZSF/6pftrGzaKUDkxon6PguLYACjOTy6THSF659Vr38y4/Vb3/7aw2pjWc7w1Q/4sePvKouf/Cx+s3PfqT2rakmgKXjmwstaFXhTdz9aV3PklWbKkOq15lYe2bua89Rv80Ul097kxZUW+Bs/WrXsMG18zWubqfcYle9bskXyLrDblAWUB82sn7G6nEwDYhmQyfMD8hCd9G1n1Vff+9j9cEHv8pBGoPz795+tTKcVB6A7toXn+JWVUCaItOUl6bMVcvofNEpbjVADbQctmfUS78mWNlmUgawAd8o06Fv/bJ0Sl3rGjpMKaXv7qYRbBJlu6mBxQSMtCkEv4bVPn5xj2FgSZGPgB1d84wHKQ0AB7kRy4lB7FpAM6vIwdPXFMQ//SZ2ht2g4drF7X2ZWAuK92tDiwnQuBuDEMAhH8LWXfusBynixye+p378wceqruWEcnYroMkp71hmRbNHNHkr2/tKibEVl/2bhYMZWkoHXWBBs7Uk0skFeHC9uLXPquf/9g92ugs4f/Pmd9UdFdec4aB1K6DaMgbrV/0cFXH2GWr2yEbWnvWWHj0ybdePWQhOB5KD0EAG6Hi82RQqAhOA5lwL6e/VL2hDqAk4CdauBlS/1FDRIvKNojrlekRRwxtzv4Q1oIAIwPGwmc46OJEHbtnLCiRI1Gfdtc+qr/zsQ/XeG41bTgxQtwKanuKWAJttGvEdYshC3BLZdeHNyq5BARx3F7J3Z3k89xN0FLbw6eefESjZoxXK2yplorZp93XfwfybRNXb2KDwuiDVV73cejXa6C5uZhHrg5Z/S6lWf7tQSfv5+gbIQnLg4AdwFE6uSRnAHDqURRzcdgma3sElSPm7uHgnt4q7Z78pv3vvw/XgJGVvFNCx9QrrUH8nlzaJ3GOWp9/kj2FS7fWe5WiXrnRbvfZVP4LIg3PlBntIGNaoSNfQMouIiw7BpPh2w0ltXHP99ui/WcJX+YrCZEGvuf72KQWU+m6muuxFhSsfKW5VAbHbQAqAFYtYf8y6SGa5KS4HlUDkcOr1JpvO8v+KAkQOacwPmFvt0kyA/x8U/wut4lI59L/V/ZL6xLo3owPWgsI6kqLCzy0l4mLQlcU100EpKwrezzqgX5bngOF5KI/joPJ48pPwwjiE+1mwcu1yY2mFDnhTXExnOXgcTg4jGgeMcBEvriio6EDzOqAB5dNXEirBxuMALNKKwjIozQ+KyFBkCB3wXlSAFeRWE3HGNYJDHCoRVxRKdKA9OjDABUvgcctJaRQHF35eRvztGRiRq8iVdGCAvnpFXxDjXybzvyjmvgo1Mt/55WtZIgvRgfbrgP0+qPmup/veJ/+mYuz7mzOH6n938s57ztiP8fL6xV9fliKz/pCZBhQf2+Ug8g/mtkoZBND+UKpW6YvUM6oGYnC2SzACqADaLt3q1Xq1BZ2qixNABdCp0rVeaWdgKi9EABVAp1LfeqEtAXRQoOkFRe7VaxBABVDZWe9gHehbQK9df7u6K/ujdux/ogcOP6623XFEzZ6/QhS4gxW4Vy0nrqsvAR2as1QdOPyE2nfgpNp2x1Hvt33nfeqOXSfU7r3mey57735ELVq2ViAVSKdFByoBimeioLpRt1M2ieYvukofkUJwhtey9vptOu3a67epLbfu0/6773lcjV+9OZc3LCthWc+3Wgfsm0SAMHRb2WA3Abr2um0aSHLJ2tI0+PpNO9SMwYVNgLpaHb80qc6dWd1EHWUQbFWnL0+q00dK8m2eUOcuH1O7KljGNWdOqguXJtSaCnlDfWmmbFhXP4YrWdBWCaZTAJ23sNyCAlC69uWrNtjvjN54811NwGXgaSugGrxiQDU0lyfVhYqA7jo/2TCgzZRtld51cz0CaGAVCEyyljfctEctGVtnf+Orb1L7DpgvoA3PHWsQ0ukF1IFJcAqg3QBuXwJatAZdc/1tGtDYzi5tHlH8/IVX1QY0D0cEkCPHMnAygPi0MrOMuakm4s9vVdpaafAAoG/5+HTT9Kdkiou6gzpp+oy2wqm0iT+pjt9DU2jWj8wf5u8GSKazjwJoYEHnLRxX6zZsj/4+sfNYw4CaQU5bUAPMSXV8M9aOZr3qTUMzgLmS56aQFaa41JdKgGayybWh47P+RW4ihf0L5D2dyt8NbQugNRSGdn0btaCFgKagisR7sESAnREpE1PE5gEdVX5bEWAHM0vLIa4h71i/+y1OAK2hMO0CNA1LpvTnt7optQUwkkbXYtNhieNuus18fu+mEMjLpumbBZ8BmHpselCu30Br9HoF0BqK0y5AtRJH1mtmI2dSXeCA2ulpZA07DYDOGDTTduprbHdaAM3f8OrAKoB2CqA1poHG+vkbQHbQp9iCckD52hP9EUAFUDf9qwhb0S4uFCvmtsuC1pluuilsYsNpigEFgLvoZYbIc1WkN/KSQ2wM+i1OLGhFqEkxWgVoOGUFdLEpoq+Q/kaMATtY92WAltVV56agIYvAN8PbpMqmusF0PFm2htx9GTRnkbqtLgG0hqI0D2h6V9MocvgGEAHpnlXmgfSBNcqX2DwKrjMFqIkP+hHdAIoA6QGbgRQt21+QNXNTEEADxS0SZisA5Wu2cEoIOOzmEN94yZQ/Z31j8ZkV1fUk1ra1AMXjEvuyQXYTuBxY78F4PG4+1J/YOrVI5v2eJoBOOaBiPfodujrX35eADs1Zpl84iP0flKxk6kf56UUF+j9pHSFLXrkpNaoDfQkoCeumW/bbf6jE3ruNxe2/5zG15ZZ9AmeNWUejiinlzE2tbwEVBRCr1g06IICKNZAZQQfrgADawYPTDXd46WN7ZyICqAAqFrSDdUAA7eDBEevUXuvUDfIVQAVQsaAdrAMCaAcPTjfc4aWP7bXyAqgAKha0g3VAAO3gwRHr1F7r1A3yFUAFULGgHawDAmgHD0433OGlj+218gKoACoWtIN1oG8Blc8PtvfOL5a1NfLtS0Dl84OtUR6BsP1y7EtAiw4Nk88Ptl/pBOzqMhZAg/UHAMXXzVr7+cHqAyNKLLIiHehLQKfv84PmzJ6yE/eag9Mc5hU/+yc76Isdkh3P58Ohzy9KnG1U1tdmypbV3Q/pAmhoQXv184Ox4zizA8fKbhj60K8GAW2mbD8AWHaNfQlo0Rq0XZ8fNANhLFgZEGWDVpieOrh684Q6HvnqdhWAquRJ9amZsqk6+yleAA0saLs+Pxg7UjM8dhMHQdtjN7nVwlGaPI76jvgK3weNKXbq+E2dF3WzKTGOztTgRY7RNPHyfdCYrBuJE0ADQIuE2Py5uGkLakDh58zijFl3cDUA5uvGnIVKWdDEdRYCmpXJtaHjs/7xG0ak7XhZf41bJPN+TxNAE4obU4y2ARpRbN1+JN5T+GwNyYGFRfXikteYbRoFn2sIr91rk9fl9S8CLA685hDz8uIvfYtLAK2hJO0CNG3FMqXnAFkoIml0LTa9zEpl5WPfXAlkkgSUA6hvFnwGYNovKhveCCScHzMBNFDGIiVpF6BaiYN1nl2HUjwHtBXfB80gzq2BE7Iohsw9uoltfhWXzStkkfz7MU0ATShlTBnaCmiNaaCxuI19H9SWDaCPXS/iiiFzgMam1cVlBVDIOOUKoB0AaHqKG1FgO4VNbDjZ9HxZDUtk5zWlHIgvggxp8n3QvLwhv2ZcAXQaAA2nrFg3xqaI/uD6GzEG7GDdlwGaqyu2oVTx2g3YbDcZ5bw64xtOybKoQ9zCjSIBtIaCND/Fnb7vg8LSlX3pGlNgb7oa3QCKAOkBm1mUaNn2WBv/ZtYbbQigUwzodH0f1FiySeVtPrGNKVjcKKDYrc3ynz6CHeDAesv3QQutYSM3kL4EVD4/2BvWpRGF77YyfQkoDZJ8flAg7QZY+xbQbhgc6aPcRATQGmtQAUaAmWodEEAF0JZvbEy1EvdyewKoACqAdrAOCKAdPDi9bBnk2qotFwRQAVQsaAfrgADawYMjVqaalellOQmgAqhY0A7WAQG0gwenly2DXFu12YEAKoCKBe1gHRBAO3hwxMpUszK9LCcBVAAVC9rBOiCAdvDg9LJlkGurNjvoW0Dl+6DVFERAml459SWg8n3Q6VU6gb66/PsS0KJvs+Dzg9dev01tuXWfOnjklLr7nsfV+NWbZa0my4Ep1wEBNFA6ACrfB61+lxeL2D5Z9SWg/fp90Py5ROGZQnFF0+cU1Ti3lwPbTFleT7/6BdDQgvbq90EHt6rTwWHVBthySKueCBiDqJmysfr6La4vAS1ag/bs90GDG5FR9MjRmZF8zUDWTNl+gzF2vQJooJD99X3QxAeYIBP7DRf/uE46M1eDFzml3sTL90FjsDUSJ4BCGSu4zR9cnfhcg/0gEp9u4uxZdqJ75GDonIUq+PRDXkFMf7xDqiNyyLWh8/in3Ou6I23Hy8bXuvn+ST4BNKKQKUVpG6ARxa6k8BFg8RmJMuhm4JDpYF0au/YkZF6/I8DiwOsGN5hifem3OAG0AwA1p7kzS2n7FJmCWigiaVTOpkesT5aG0+XLITZ1JAHlACY+8VBUtt9ga+R6BVALQ0Shg7R2WVCtxOwzDADIuoGVw+cZovpq40EAACAASURBVN/3LAI0uB60WwZqMWTZRtPlSYXPR3BFLC5bLnNeVz/6BdBAaYuUoK2A1pgGWkBjZWoASteatt4OnmLIHKAx0IvLujaK5N7PaQJoBwBaBRKrpBbAxIaTTa+o/ImpqW2PT2MjsgKA8n3QivKOyJDLOvQLoDUE1ioLOi3fB01cZ5Wbg4bwcmSN7G1SZZY0mI4nyyb6Eypov4cF0BqK0jyg0/d9UAIxnIIaOCe9+FjcjKiVjQDpAZtZlGjZ9libXoRZAJ1iQKfr+6AGMv+Fg9gmUxRQTHPl+6Dyb5apuAvK90HFgk2FnrWijb60oCQ4+T6oQNoKgNpdR98C2m7BSv1yA2iFDgigNdagrRC41CHg1tEBAVQAnfKNjzoK2u95BVABVADtYB0QQDt4cPrdesj1jyoBVAAVC9rBOjClgModUTZIRAfq6YAA2sF3T1Hmesrci/ISQAVQmeJ2sA4IoB08OL1oEeSa6s0KBFABVCxoB+uAANrBgyPWpp616UV5CaACqFjQDtYBAbSDB6cXLYJcU71ZQc8AOnNooVqw+Bq1ZGyd/i1cukbNHFok1kFuQF2tAz0B6KJla9We/Q/rb3nS9zzxm7j7ETU2vqmNA3RB/fDKR+rnLz5h29jz4u/U+1d+p75+wN0pz7z+kXr/l3+l9ggsVk5iSZ1+FMmiJwDdufuEhnLH7uOKzg2i3+0777OgbrzxTkUWtkgQjaUJoI3JrZpySt1T/C5uOwQ+a3ixBnH33ofUjEEfwpXjm9S+g4/q9O07j6p1G7ZHf6vX3armjo43AHAe0Ng1igUVIGN6USWu6y3o8NzlGsCde+6PAkbgkWXFtDflHjj8hFp19Y3ROtKCFEDTshEoWyGbNgN6szr03JfUw+urD9bcPZ9RX3v6gJpbcb02VAIoCYmmt7QWTVnQTVt2Gys88WDTgJo16M/VGdZ/Z0GfUF//5Ufq/Sv4+WvVVgyo1FFd17pBVu0FdMEBde5Hb6u333y5EqRzb59U33zzbfXmK5PqtgXVBD08d6zQglYdhNXrbtMA11ur5i1oGtDfqZ/HNo+CuKr9lXzV9KPb5dReQMmKLDignvlBOaSNwEnCt4DeFZ/itneAagB65SP1w6dDpcos6usXalrusB4Jt3ecp0++A/UsRoMdLYG0UThbBejM4UVq2w1H1P37PqfWr91ZA5Y6gPrTXihUzOIiTdwG9Y0tL7pdhhpQgrTtoCYgnbv5tLpYc1rLhd6sBaXr/vrZv1H/9eK/q3cv/EltWHunmreg6o5uDUATz0Fjz0359Ym/vyFt/xSX380WHFCT333LrkktnC+dVpsqrjlDhW0W0K0bD2o4CdBDO84oCl965u8rWtFWARq3ruG1Srj/YM1NcdtuTS2kr6ufkOVsAk5S2GYBPT7xjAX0jS/9D/Xm8x/rXzUYagB6JQ6h2+HtP+WrJuP+lou2oHx6C0B5XMsFSZC+8rr6ycXGLSf61AygK8duVH/1hX+ygJIVpd/kiVdab0Gjm0QG8Pdlk6iivPsP1qlbg/Kpbgv9M0cWqYNHnlD03m2dm8qaq25TZDEBJbl//dX/rSZPfLs9a1D97JM/98Qz0bhlxQ1I3P6Dko+5B2gdBeeVTLf/1tsP6WehO3afsO/i4p1c7q68yrwptPbqbRpGwEnT2rXX3N7AXbzGFJc2iQ78lfq5fUlBXqCfbr3phvbtFHdKprYttJxcuCPzV6gde+4vfZ1vzXXbNISnjl60lpPgJGvK6xN/f1utThr/nAXtVitK/eb/B8X/Qrk7e/4KDeLNGw+ov/n6v6mffPEPAmebbpqdpOTd3JcooN0KaZ2BWLJ4nRqavUwspwDa0TqQew7Kp7rcX0f5Ja9MEUUHWqMD2oJCmBxIbkW5H3nFbc0AiBxFjkU6kJzihrAKpKJIRYokae3Rj+gubgxOHieD0Z7BELmKXEMdsBaUJ4Qw8jD5eV7xi1KJDrRPByygIYQIk/DhFzjbNxCi5CLbmA6UAsrhFEBFiWJKJHHt0wv7mCUEsSgsA9K+ARHZimy5DtS2oB64gwvVzGwKzCsVvyiZ6EBrdMAAGqwzPQjptAVKtz8TxgBQPPziiixEB1qrA3kLyqzizOAgaBF+a4Uv8hR5lulA/DmohpQspXukgqksjyurXNJFAUUHmtOBvAXNDhDLTXPD+MzSygA0NwAiP5FfkQ5oQHmGUjA79EUF+tTg6BL5/CAfS/F3P/xmipttAMUGlICl+HAzKAzHyk5V3NiqDWrvwZO5P2y3//OD3a8AUzVG0k5jumKfg0KAVcDjVhblptPde+DTGs5dE5+0R57csct9MGnj5l21ziuazmtpqO0jx9SFyyfV8c2NKUFDbcru/ZQ8vUivQdkGEQaQNoiqAIz8U+HOGlmi4bzr7kca//zgdbfp0ximor9taUMAnRJY2jJ2JTe6gVnDixT9uFXEtBYd0ml2Z7ez7tKt+vwgfZaQvn6Ga+4qVwDtznErgZN00FlQvIgQ7tYinFUWWtAw7Ct2d3x+cPPWvdoK7z/0aHcOtADaneNWC1CAmHItoP40txDQgs8PhlaawG7kI0r24OrEB3z9G0ba+u/Z97CGdGj20hqDvVWdvjypzp1ZrdacOakuXJ5UFy4fU7uY4Hedpzj+89PRv6r5ZmgYWX2XJtSaHKCxflEZt07124v1abU6fom1Q9dAbbFrm7F5Qp27PKlOHxlVuX6d31pDjulxgXz61TUWlKxnCkwer61sAChPjz2CSXw0KRR4I3BSHRbQJj8/eOdd5thOmjKHfUuHMxAunVQXcgpp0kKlNmA4UHTdBJhXPoMjAAI3AQ1EBgriOHwzBrO2s5uH6T+AO6ZOnzc3FS8+0hbdeNy1Z3XyfmaAnguvP4v3r0kgdLKsLgu7BsVaNLYeBbyxBpBW5JZ9I7RROKk/nQBoaDWpXwbEAssUAJGTbWgVAYMHjRnoPPTxmwMsXnjTMNYvuGlwS+ndDNg1AcTYtWSWnt9MctcYaUPy+PAODA4v1ptEVQDlEJYJMpc3YUntF85qfFWbt90RgHKropXOAOJbICd4Y/WYoscUNVN+KHhhmRBmWNCq/Qra4vL1/GE7BTcNWPGUDLx6Y9cvcXr2oqe4HE7rH8rv7HLoyF9byPbLZi+rh9ePKgtnE1846wRAc0pYpvChomfK6K8LzfoPgOq0mKWisrn6UjeIRHyyv5gW87Uos7TJcnQzyqx47ibhblS19acPodVTXIJtFv3CRy70aIWBGAKKcC1BW0g74/OD6HtTa9Bw2lmouHmg7DqSK3NQx1QDipuFd/MJbwRBHyFL4yZuBn0ImS+XejcoY0GDjR6ABzfWgH5pIVIuljcX1yGfH+T9aimgmfXwlJsppj9dTShyoPx+GX+QTRqzbMn2q7WFtSqst5VTAtDodQb9t3UwOUicP44xebjnoBHYAGjOzd4yysUHdcQabHXcrOHF+vHI3sibRNXbWqjwuuCskcU1pu4Jha+ySQRrmVBkWFULiYYje6ThKTmmoS0ENAQxa89YVdZO1vfcptPgaPbYieX1+lyumNXHrrfrGhgccZtEHLhZQ+YNo9y0N4CQl4n5p0LQ9A4uvQnE38Xlnx0s8+/a+6Auf+eeB2rASYqRBhRpofIaJecbRKYOL18GIz0/tYBa6H2lp/r0Yw72jBNt5y1bor/hTQLg4SZigfOfpcLS6ue8LC+eiebb722Y2qHr9jFLDC7EAVJyERdz29HBKnUuW7k++m8Wgrbqb++Bk2rZyutbCCgpI6wb22SJbfQACLzQQHlCaDwr5urTEOQsXgLE1A0l1ha7SVgAw3ZYOaxZ8VIGv7FUGUPJE795RQGFsAAhheHnbhG4qCN0qTziUBfCzbjh/0H5ZwfL/PQ/Ut6vZvrRV2UZoH113VM4XddTXJrmYqoLaEK3CEbkLbOwyMddGliEZZDjd9GOlYsAao1Nu8ZoALuxBBcHlcOGxgESuYhLuTxvyp8qK/FdAqoAWspBs7oc3STicJIfvypgpjoUQprKJ/FdAidN8wTQ9gPKYQSA5HIoOVxhfp6W8gt0XQTdFK6vRC/K9SJ+7Gb2KIVDCmGGENYFFvWIWz44IiORkX1RAcoQAsjDyEMu4kNAkQfpPC+PQz5xRQlFB9I6YN7FrfB8k+DiFpXCWrBDDlbEFYGINOSVwUkPjshGZGP/zaIfs2RvFRE8Gsbs8QseweSsZQAnh68VflFQUdB+1wE7xTVAmkctQ7OX2OeiAJUDB1AhPJ5W5F+5Jn4MRlEZSkM74gqw/aYDA8Nzlir6Dc0JoAwerxAoGtZsOkyCQhxcgEth/oNQU4AiPeVSXak0iRdoe1kHBmAtMY3lYJGfQ0f/GaV8VGaIpr/h/0cDMAEW6ly19hYPXKT3soDl2uQG0owO6BcVDKTuhQRASRUDUvp3C0DTcRm8BGwK7hBAAVSUtRll7ceydpMI01fuciC5H4JCHMqEYR5PZTDFpXwURn64qFdcAVl0wOiAv0kUmbISZACoWZcDGqtLBkXAFB3wdcCeSUSCIWi41YtB1EwcAA0HAXWG8RL2B0vk0X/yGBiZs0wNjiyxm0GkBFFQccxJdpAYoKriAvrxa2/NWeNOULrRxWPqm88/qr79tcdyP4qn9E7op/ShDwGlDR79mGX2UrM7Gz4DjTxu4QADPrhFwBKgsXzTrXgHJ7ar//zH7yR/lD7dfZT2+w9OGnPvD9sE6sjcZRmw7rkodmqLdmuLwERap+7idiKg+ZP6WqGg2REs/Pygafr3Sv5splZcX+/VYXdx6cgQsm4zM4vpoHTTX4BGLu7oPK7MHwKKOkKX1xOmtSPcPYCas4YaP+9HAG2H/rSzzgECkwMR+glawKoBDl5GQOdQjsLww0UebBIhnlyeH/mQjnC7XQ/QfzBT3T+zKW/HTHGb/oN05wDa7jHtlfr1m0T6zaDZS/VmEaaxdN4sB7IKpGVCIUABX5lbVlcr03d+4ha9/vyPf/y2tw5FmNJb2V7DdQmgnTEOU7gs0I9ZCD6sP2kNSt/IDIEkWMNfGWQ8nZQSFhQKytO5n9J5GH6U4+k8rhn/8rFx9fXPf0oDeuTAHdqlMMU3U2++bP4oztNH8pYtPEk+PNZSH28ZO8LTKk/ddrLzefknC7MbAo7SJJefdRtfR2bt5vrmHwWqy+by4LMY7lhRarPxKX33r0nZGtS84E4Q0mMXgjT1nm6joNIaNK+wPow8HWDC5Wnkp3juhul1whvXX6+hfPbsfbrOZ84e1WGKr1NPcd4MAk8xHRj8e5ohoLreyha0bjsn9eHXxzdzhSbQ/EOycSC1BSY8J1ffHHA9sbIuLgaoAd7l0decnc/LbwzFMubX0P1+87K8frRCu7Zm59ZYT+4379tSPMEJYAzM8ZPpkYe7VTeJpmMAXn3pjPr9e19Ts0YWaSDJpTDFt6o/cYvjDt9qFaD12/EtY/p6Q0tvYPTgIaAuHVOnL/l16hsOuzHlAM1AtPDbmUB/f0ZiQE9p55gpLe3gcqDgB4jhtJenA1y4SOMuBzStBFN/19t/1+3aWh4/ssuD8fjh3Tqe0pvvb0SZrRKGig+l5J+IcCDHlNj1r5F2Aqtl+5UfixCsWJiA1fH2cY65Pg5yrJz3+Qveh8ozh3x/nVy6M22AprIEqXv+GZ/azsjeIAKsMRARFwoFkAJQSkdc6A/LtiM8umhMja0ct7+/f/vL6m9//KwO8/Yoz9++9qyidJ6fyvN8lfyZknEldeVaCGihMldsJwIHX4dykPypuLk56BuItojZDSbSJx/QfL+cbAisoptOd4LnX1/6GvQmkd7Fzf64jbeKBrM3ivi0lioFWACVp1NaaGV5mU541W/x0pXqT7/7praMsbeHzj56j4aP3Fg6xVF5qqeqkHW+iJK68nkF9RU/G8DCOqrkqdiOBtRAccH7KNOosYxsquqdjav7x6HMLDOHNYNfAE1D6fRCv0lELyJgHblYEZh8cwjADc5261DEEaSwmgQnVUwu4pGGBmOPWZA2Ve74+DUWPHrW+ed/8l/x+/zkcX0d5HJAKR9/Nkr11OtzkRXIYLBTwnZNcSu2Y79mFkyx8YU1Dmj2gSiaGeibir0GczPIT3eNYvqARsCPWPHiqX01ha83ZtNf5wA2hhykZhcXFhSwAUq49B1NpMGq8otHHFxK449ZeDz5edl2+jmgHED4U4AiHW59QDPr5Sl3pgDZBknVTaL4NBnK1IJ2oiBS/RngwTUY2MzGEIfIADuhjgcbRjS+IaC5HWIGaHQ2wdLbqS/TXbc5kyh7/xbwmRcXzC4u9wNI4+IkhbhlBYDc5YDiwnk64rjbaninD1C3ycNBNFNEeswxqXh8XCnzU1T3iUNm7bKpMK+vXjuw4PwZZNY2fSIxABRwhdPhZHwMUMQFU2rUwcHn+tHrfr1JNESHhmUvJ3D4ACef8lI6oOFwkd8H2J/+Ujo2iVA+JtyitFj+unHTCijd9QEPvgV6mcDKgxcHNCivQQE4DNBWtGOBcS8NECQ5y6ctWdyypiwujVm8HndjcJtS1XeY6+pCN+TP/s2yxK49HYzZWpRtFsHCkgtQASa5/BfCSmkcUJ6XCyoVz/M06//qZz+Z+98n/gt6y9Yb9XSbXMSFLpVvtg9+eaPgxVNXTGHF9WXX2/Jg7+Iusa/70U6uWZsaSAk2DqeGmIEbwpgKVwG0SPgEb1F616bpNWh/W4quHbs2r4X1GpQ2iOzjFX1Kn1l/AjQCEn5yASs2lhCGZaU8sIQkePgBKAYD8VXBQ36U7zaXpq05K5lNeXPxbR74bpNdv/ZXv0k0e95yDR0AsBBmj1wIXvwMhNggcutMDjDq4eCRPwSUhM7zlvm7fpBy60+zvuvXDZCuH88puIkO0OMUgo8gHZ5D/2QxYYojGAkaAIv1KWCE5awKFt/FLSuDdBnE3l5jyfgWj2/2hW1jEQlKghDv5AJEwEIuoESasajOkvK85Ec+cvmZRBRGXhok+MmVQSseNJFP/8jHbhIBPD6VNXH5N4sIYlhTysP9HEj4AR+muAjDDRUO8eSGaRLuH+WUsR5VA/RGEAFG09vh7M/agNSCyHZsDYzur2gUBojc5ZDBnwI0BBH5eTz3y8AJpP2iA/bgan42EYGm/7SdrUNN2G0M4YAxiidwMM0lP/KSi3SKL/qRsHk6Fz7F87D4Bc5+0gF27CZNW80alB6fAFhMfQEhwDNh9z4u4lMuBzDl7yfBy7XKjaaKDug1qH7xXb8dRMD579biWSfACzeQEE9uCDFP4/4UoClryfNXuSjJI8rfKzowMHvemH7EYg4Ly15QIFizzwpyC6oBZP9i4dA5v7OqHCyX7nZvY0CiTK8IWK5DbhbN6ICe4vonKrDnoNnmkLOixrqGG0UcPm5FAVvM5WVi6TwudoFIj6VJnEDRKzrg1qDZoxOzc0tvDtEnIMyLC4AOUHC4Un5YXqSjbF23VwQt1yE3jUZ0wOzi6t1Y2nWlRy7mr2cAix65wMIay2mmsBZA9oVtlAndOJT+zm0sT3hByBPGS1iUv1d1wBy7ma0r6WAw+pmNInMUCkFBwBGQxrqalxS4H7DCpfyAqZWuGwTz2Mb0V5TTyUVk0Wuy0C/L6xP92KkKsIA54Ozp8saKGvjM806UMXDzZ6buQGzk8aANnoF6aSXPTykvBoT8CxZfo5aMrdO/hUvX6EdFSBdX4O1GHbCffjCHhWXTWf3ivHlZHru5sIrkErjYOMLzUoBFQiC/y1duTasKDm2E7uLl16o9+x9WB4+c8n4Tdz+ixsY3WYirtiP5BOZO0YHsTSIfIgIQa0/+2h/BCjhgDQ24fvkZQ2aAASryomzebU4hdu4+ocHcsfu42nbHUf27fed9FtaNN96p+90pQpd+NDfe/SQ/t4vLnnvSywj8oGoHq9nVBXAplwNIwkQY+RGGywU+c4jyVx9AsuRkOXfvfUj3mde1cnyT2nfwUZ2+fedRtW7D9uhv9bpb1dzRVn8kqfo18D6LX+TGdUADShs+sJQ4F5fCFA+oyMWaFBtEZqrrr0EJOsqLN44AYT23+iANz12uAdy55/7oVJbAI8saTn/D8IHDT6hVV5vziLiAxF99LERWrZfVAIEECPl6kgPp0g18FAak5ALcENiZQ1vVPee+rD61ofhleQ7vvLueUS/8xUE1t+K/1YdKACWlofppLZqyoJu27DZWeOLBKOTFipedaGdP6eNHVbrDwMwpfXSCgn/6novH6Xl+enHbrVcIaa+zZOr+D5p7a8iAG8LHYYpBDJg1rAsPqc+/+o56561vVIJ03van1StvvaPe+tbTatuog7pIaYbnjhVa0KKyPG31uts0wHR9PL7QHztP6Mgx9j3LDNBLJ70zb02d8eMy15yZULsq3pwK+yZ1VB/HDpaV/bsZB4tDyf3IQy4HlfxIy8UvPKQ++6N3SyFNwVkGjAX0rvgUt51KnDy71g44rGveKpaX7aw7eTvlKHWnx9q+qKAtXgYeYKM4PoVFfOjmoGTTZp03g/Tdn34zaknn3j6pvvnm2+qtb016lpPXi0E0wDor1wpA35g8rO7asqH+HTf7ZEP60K8MUPu9EgxE/qBqXJ+4kJG4pAvaghatJzkkIZgIA24KpzaHZjFIH9lops9U97wtZ9SLelo7qW5bYHZweZspP94iqgvo8OzF6v47blKD2Yd6b7v+WvXn759Wj03cpvbevLEmpJimpk7nc2tQD7zY1NhaXVFMT1Z9LpcBbAwZ2ML/gjqQQlAAZ8ql/CRor9zoQfX0935qp7vzbzqrXvrpu+qtl8+oG0adVcyVy94oQjzgpPDw3BVmDVphijtnzmL11395r/r3755S48vN5wN/cOqg+uPLJ9VDd96iQT2zf1tNSAkoTGXDTaBiQNOWVyClsZXfqLKbRNr6YS3J/vOJNSjSPeAycDxIE6/nWWEvOKAmv/uWeuet19XrZDkzOKneWQxEm79koKpaULKc/+XZo+pP335C3Xnjej34yxYtV//xvVPqLw9/Qoe/cOxODemTdzf4RW2ce2untAlA+/iDtFXHVfKZG5Se4uJ1PkxVASEJSYPD1pTIA5gALrmDWT6UR1ke1v7Rg2ryldfVTy6eVjcsMB3J5SFY9cv7xXfSqoCuWTWuLSdBiunts/fuUP/6ncfV0oXmi9nLl6zQFva3zzf67ZVsymu//pUCNPt4UPDIRZSyeKz7UT7aguKlBFhLcmObQx5EBO9g/kV41AFwvTLMunJh2zyZtbThChZ15sgidfDIE4reu6VyvN7QP3HTBg3p5cnDamTOYj21ffmRvbrMNSvG1R8uPqJ+/8JDauXSFYX1oF7aifWmqZkFdXFpQO202MJslHPX+fyOL9oTt/8A1m8S4VU+fuwJIOWgAj5yOYCkOCFUlO5+7plmmM+82udby5kZ/FUV8tbbD+l16I7dJ+y7uHgnl17j4/Xs3rxe/cu3HtObQrQ5tHbcvOL3wM6b1X//6oOKrCjPX+TPv2TAX1IgZSoClNL9TSb9yb0A2KL2Ja33gdVTXHq5nWAClBzEKv6h2W5ziUPp/OnNJg1syTqzTBFH5q9QO/bcryENX+G7YcvuKHBvf+ao+ulf3BtNK2tP0nsfjE4ZYw0oQYjpIbkAi1s7xMFFWipM8bwuna9oikvT5QioVEcVYVE+/n9Q/C90XuIl+K3r1tqd3Cr1Sx6Bcjp0wGwSedNR95ZQGXyAh4PI48if+uFiOZRY06IM8ogrcPSrDlhAAQWgjLnIQy5PJ+GFcTpvZG3K67D+wHLqNSiDu18HR65bbkwD9MiBprgEnAVGA2ggRJqf7jaFZg1TPmMpY6D65WIW1dXl2qc4Fw9FdenVpr0oJ64oerfqwED47JKebxrraGAiP+XBZpEFjllHlNEAsUclph4ffAiKwxb6kSd0ObR1/tQd1iNhAbZbdGAghANhwAUgeRhxlJcu1JXJW0iejnzlbrkC+bCKRe0WhZN+lus2l9EANmnIJfBgUfGmEGCClXSg5mFEXlg3Hnb+onJhGr0MUX5BVDe/KPGXy0xk1B0ysn834wA5CN301Kw1F9n3ZSk/8vGyxX4jlND6pctgLWpcUaruUCoZp9aNkz2TaIgODcttFMXfBgrBDMMGXrd5pNOHFqr8B3zdhYQ7t3FoBVRRfqcz/SAL+6IC3wjioAK+vOtPR126H89BywPqv5xgIIXVdPX0w0DINfYXeFXHW28S5deXxa/mORj9fHYajBcf2LNMAjUKaJAH69eqFyD5RLF7WQe0BeVWzvppd1bv0JJF860Z1pA+qC6PH+/WseWAirL1srLJtdXXb2+KmwKLAOVpDlhAzNIZzJ5FjVrQ/HTW1e2A53EyyPUHWWTWvTKzr/pxAMNHLByQ2HSYpxf5QwvKFQdWuag8zy/+7lU6GbvqY+etQfEMlCDhIMagQXr8VcC49QsBdfX602gTX/0iZMBFVr2qA8k3iRw8mL7GoUM+WGCEY+6qtVu99WwsTxhHgo9Z12YGZNnoKvXglj1qctuhSr+71t2m5owslZchKrw00sy4SNn8jdYBmr2yB8sYgmLCztIRkMhjIDIA50DN6qW8BlBXB8qXuab+fLlGBvS6sXXq41MvqD899VKt33974Fl9vY20KWXyiicyqSYTB2i2uaMBZRs9ZfAASOOalxNcnG91vSkuuxuXtdHKwfzsHUc1mJ/feZ/advWNlX6vHTmty9x93TY1e/YSdWTDHWrhPHPQWCv7Nm11yTm9HTs7ygGaf6MnPsXkUMHqEpiId5DibaSqz0E51G6XOPV8FNPfqsp9ceIhDduW8eqHVNN0mCwuucsWrFJ/ePyr6sNHz6tVi65qYmBxHtFJdXxztbtp1WusnU8AbWIc2zt2eUBrWE/AmHfz01HK41nQWDv2r2qx8uZGwZXPwOny8rSU/+sTD9YG9KGbDKAPvKBaugAAESNJREFUbN6t5s5Zpv5y+2Fdx+O37G98YPVnI06qc5cm1bkzqxuvh81EUtcs8e2FqJ3yHdDPKivs2uYh5JYu5jdA8XKlgGpos3JM8RyIeUi5cKgtHo75GwH04S13aSAJUNT5L2dfVF+885gNI76qu+v8pP7imT4ZUE7ya1iOVeXdrfm0BaUpqgYJG0V4VY9NWTloRX4CPpVeDdCwPEAvhrPqADQC6CM3T2hAT2zepRbOW6HePPqUDt+70ZxIX7Vtl88cx6nPz82dpcvu9jwt+1CTPpqTvkVqT6/P8tfJy25+uk+8rE3DFBzfLZ1UF/iNpOjDUdnswE7dw75fDo8nZdds25c4GhsDKAEJSFNuAXh8fZiCk+INoEbw+bVuCCbCBCb85DY3cF/YeUzDtf2aLZXv2ie3GkCP3bBTr0H/6bHn1Zd3Ha9c3oFp+u5/ejADIQSOFDUD51z4fdEs3oO0Tt4Qggig1Ed/6m1uKq7NMOzGRc8OLMyUzz+M21x/B6y9Qzl0YHiADq2O/fDFs+E5/he0+YsJfCPIh4gD5fwcUK60Vcr6eZwy8Hqq+I9u2qkBPbnVnChfpcz5XSd0mZ2rb24YSteOAdJT/tDiQFEAolV2dt2hBauTF/XDjQDq+uva9G8sic9XZHV514d2rGvgLs7j2o31pV/i9P9BAZr+yxmb3uIcoqTLziry8rA6+M5ufIrLLWR+GkuWtpWDsXHFdRq23zz4nD7srErdV05+WX106gX9f9kq+QvzRGFMKGyhsgdl6uQNZVoR0Blh38ObxOCoCiGOy6Jg1hD2rc/DAyRATDcxzfWESlPKbFrpWzFnGXk8f+QC8OGOX3ur99J90XrV60MLB4n6+rP7JjMrOlEKPzaI6PFMK/rkT//czScaXwiOAdROOevkDeWZLBtZh17mU9MQtDDsrs/AzdazsXV02C8JmzUoKS0g4i4Hr3G/s5BxCxoHPWyvFXCgjvFFV6mPz1xQfzx9Qe2/Lv090EMbtqv/++SL6n8+8YKiMijfuJtBRcqZ+LkPL7k1qBdnlTZuQSvltXVkAEUA1TeMy8EjoNCChhYzUg/W0Re8dWgByGHf+jyc+zcLTlZoPajYJCoC0sEMQAkG+OG6D/iauhoBhuD7P2cvakv6yv5Pq33XbVNL5q9UVy2+RtHu7Bv3ntVpf3ryRVVnQ6moL8WbI4FFJMXMFD66VgthqJM3VPpEXTnYI4Cij5Q3Nr2Nzgzw0ajYxljYtz4PZ7u47uO5BIH3P05vPWksLUCp5pq7NOVt1IJySB2cbPrU4CCuW7ZW/d1DzxkQI+/mvv/wF1SdN46K4LRfMott+GT9N1aL7Xhm4HiPN7K8Odjr5A3lFQIaA3EQm0J8iktjAGs4oY7nXrpA2lZ/9oG+CqC+XMJxwWOWaqDFp8FkaYvLO5BWrYn9myVvIcP6ihXf1d9IvpGRxWrvddvU07cfVt8/9Lj64aHH1Qt7HlC0yzs8sqRUgJXbzJQyag0xMGEeKHK4Xss2Z7y6auQ1cLNnkVlZazFRFwMIZS54a1Aje5126aQ6F0kzNx0ONZvms/oryxGy6hN3AJs6KSh0fGSaGeYvD4+qlWvcndTPT5CaX7sH6siGT6iH/v+bQTTFbeT3qZsm1H2bdtYGN6+osRtLZnFgZRk4prxbu1qYoKg18gI2Wwcra+Wf3QTsWplgSlhWTHNjlt5aWLvmJlgTlhXXIq7Vr2wN6qyjD058vYhBNFDF88TqSU9xASjVlbaoaNe55a/2ubwGiLVL1yantFX/gnbixl1WgGH9LQ3HwEkpb528YR3NlA3rknBLdUMDSjDF1p0xyOrFcfD4GhSPdmIw5i0Lb7NZABbPX6mO37BTnbntQEM/enF+zbI1LR2E5DXVAadO3hCilGUM80l4asadydm+6sch4M8ni9eYMcBCiwpIR/UftkNl5BYzTOv7cB3o6uRlCmCnoLIenHL4qui3BpTDSX5Y0zA+FeYNpfJQfG6K6ylK3nLyesmPus1OLk1vzQ/xcMNyXRuuA12dvPb5ZbamFTg7Ek7SW+85KBScXEBabEHT1pLXBUC8TSINnIOO56/rR/3ilt/kREbdJSM7xQ1fTMDuro33/lGSPvUvVADszhJ0OQsa1JkCM6xTwt2lZDJejY+XN8W1MGYvJ4TA8PQwLQzzvPC7d3HjllcGsvGBFNn1puycBc2sGWAyrnn84sPnT0v9/Oz7ouwNJJQnCyqK1JuKJOPannG1j1kAEXcBn/dXMvpMYfCjfLwc/OGg1TkXNywr4fYogMi1s+Vqp7gEGYFHf9SmP2nTn7jNn7Y5kDihLwakuVD8dQ2Qaje6IWSehXIF4etVHi/+zlYiGZ/2jQ87UWGJBlJbRw1rEYzhGrIo7Dpv4MVzUVcmHGAP7goHgYXlJexkLrLoblnYxyw+FO6iKB5TXfPoxYHll0nHQ0k4oIgjlywnD4d+3k6YJuFi2Yl8uls+dorLIdBQVnwEEpYrD/sCK4NTFMyXl8ijv+SRBLQctLTFLC/bX0IWqGS8G9UB+5jFQeU/RnHx5UCiE24qW1bGDZzZIKL8Lg71iSsy6VcdiAAagYq9B2tASkMcE2QZ5FQG9cbKS5wA2q86YDeJsBEEmAw0Aazs5XYAhfx5N65UKAeBh2HEixuXn8ilv+SSAzT10kEeQA5v2qKiHBQLYQOmqwPp4vaXAsp4F4+3ORfXvubHH6mYlxFIgA4qB1Tr44o7KgMp8inSgQVLV6jPvPSIOvWl+wsf2RXV0YlpyV3ccMrbPJBYZ1aBvDuUEUphz+2x5+5MRhXl2JmDyfNw7zwc/xATypAbU6CVa1erL37/VLReiqf0sBzvd6peXob6RtdIAFBZSitql+fj9bTTj2vqG0CbBzINIgbKtRFaacBcDdRZc5apVRvu0r/BuSs9hRxdsUnHL13tH1A9e9FqHb9iXf0DwNB/KEWokFDeMJ5g+MprZ9XmT1T7cBPqee7bj3pwoH1ykSemmIA77Af6TdClIEYbPC+vp6hdlJ1KF/2MyWEq+9HqtpIW1MGTBq25PCGUvB0DaNWLnT+2QZ39wZ/179DkW3pKTmXnL71OPfqN/6Xjj37uFx64a2+5T8d/+uI/e/FV26R8UAquuChPVieEsS6gVAcBpN0fnIqCXQZKLB39/uIPTuk+FllRXAfl5dcZqxfXPh0urkkAbfkbRsWgVhnsBcvXW0AJ1FsPn1ODc5arE19+38ZPNaBkJQlQUnBcQ11ASdnoV6R8VUABZLDcqI+Ae+qFhzzw0FdykQ/9aAWgVBfVs23iNi0fLA9wk6C+Io5cLj/0Df3i+fbev0vXS/UjXy+4LbKgRZBxy5j3kxCLLXH5NJdb0NPf/TcN5bHP/1q7py79q3aPfvY9b+BgQR9pkwWNwRiLSylRCDiVjU1HqwCKPIAACs5BiYGAPkD5WwUogcXron5RHOCl/pFcYvLCtfDyiEMdKZl2Y3yLAM2DVwydy09CCx+5hGXLBMsB3bDj09ZqPvTCP6ht937RAPo5A+jC8S3q1nueU3tPvabjn/j2v+jwlr1PqZlDizyIy9rlig6lojKwAgAC9cQUDmmhS3ljShjWCeUsshzoJ/IgTPVTeXJ5W+gLgInlqdIu6uEu1RlO/dGfMB5t8Gum8rEbFW4muEbeZjf7I4CWAxMC1GyYBFgEaZmA+RR37uK16pZDn1NPfOdPaslVW9WWfZMZoG4Nuufk9yzENCWmvMvW3F4LTuoTFItPtULrwPtOihbmpXCocDHFpHoADLWLepG3SDHRT+RBGFDSDSWEAwpPaWF+ahvtxq6HA4V+wqU+hNdLabFrQ7voN9qM1R/mRXvd7kYAJetWNu10FrBZOE153h73u3aKBM0tKAFKeZet3a7dzXsBqJvikqWceOyHGlKaAq9cv8cqfFE7YRqUAopO6YAwNmWktBCEsE4Kx4BJxUNpocSx+sI8Yb8R5nVwYJDOrzOsM9ZuLI7Xy9Nj8WgX/eI3DV6W/GHeML1bwwlAHRgOwBAcszakdLp4ly9Wtk6cqzesMyVkDuicJdd6sMUsqO7v8CJ195OX1fimfV7+VBuxeCgFV1zKRwoVA7EqoFQ+ZpkQB4WltqqAEip2rN/8poA6Yali+ZGH9yUmozCO8ofygszCeLSLNsLr4HWHeXlaN/trAFoFMrehU8cKQ4AhkAhTOvcj/3S7UIpQsVLKWwVQKCHgCK+RlJVPEVNt8XJUFy8T6zfqobx18gMe3l6RvxlAeR/DNpBWtz9hPZ0W1oDSCe0z6deqRygEFIOqTr0xAfHysfTpiospOvpCSk4Wj091KS5mWVGG3LI8VB+vt0wxw/zURqrfaJueeZIf/YrlL2sXZUO3GUBj/UD9uM6eA3RkzjJ7Sh9elMdFk0twwOWgcH8qHfXUhR/lYvXytOn2FylMLA0AkJWM9T1WJswX5ikChZSVw4y6wjoQj7rCm0gsP/IWAYE8fIbRDKDUT8wweLsURzcV+vF4XFc3uwOz5y1X/Dcyd5k90Q/HawJcA6WbbnJIi/wQUF2rinKd6sYUl/c1vKsToFhHhi4pFvJz68Xrg5+DDgjC+iicqqeo39SPUMlj+YvaBeDI00pASQaAFNdM0/drN6/Xa9uw75BZt7r63yzUeQKMQBwcMaf70bGb+IXQ+sDS1JivPcOpsksrE1IIeVl+Sa8uW5FVd8oqW4PGOw9gDLjmfFxzVq6BGH6ytHloQ1CbD4uSxcdJ5NK7con+YZtgww+QchdpZgq8SA3NdodbIw0uL1fFT8qWyieK2LuKKGMbH9sBrDPhAqyYWwQOT6OyYX1Il4GID4TIReQS04EWPwc101jbUMEbSTYPO+dI4kRJRQd8HagNqD5dvsLzUk/QBaDCspLrlRFwRR6iA6o2oAQSTWE5WGm/fzcgANN5A+srgyOAig7EAaWva5eBVCc9ZRmpjhS0qTISn7/piUx6VyaVLKj5aFJVq5mAe7B8ChuDXpSvd5VPxrZ8bEsBJTgJnEa/bAYr2ehgNFu+0XalXLnyiIzaLyP9HDRmuRCH6S6sqHYJ2OyHfIUurT2znwxq+wdVZNw7MrYWFMAByBhwOg9eYmhknar/NdM7whMQZCzbrQMD9Lpe9V3ZbLpbC07auQ12b8Wayg6t7NBW0gH9b5Y588fU7LnL9cvx9AZQGbCUPmuoxqYRprgEqsBZaWDafWeW+rvD+ttvsxCY9K8V/PWM/Dnrmt31YtPfeFx3CEGUVcapU3VAr0F55+jP1WQhh2cv0cASqPi7GUFMICJ/HMr8YxbkF1dAEB2opwN2k8jCxp5XIm5oZIme/gJUsqx5WNk6M1hf0LRWBkZkIDpQXwfygIYbQAGwZF0JUPyZm0+D+QAAbr1BJIDKDUp0oCEdSANKmzkhrBTOBE1pBCtZUoIVVpWek+ZA1XVhN7f+XYTXJ36RXz/pQBpQDaMBMgpqsBYFrA5U2uU1ypR7zMJA7ydhy7XKzaWuDgwUvZgAMKlS+FMuGqZ0sqoEKk5aQBpcA6yxqIgTV5RXdCCvA9qCkvXTvzrPNmPT3wKrSvUTvOEg8DjuD/NJOD94IpPel4k91Y8GmwBp1S9UHgIU018+9eXthmUk3PsKKGNcPMb6VT8zHTWPTmh6WseicgGHa02kAUgK0yYS2ggtJm4OKCdu8eCJfHpfPrlT/QaH3Ql9BJL3G2bwYlrsuXELHFMkgjEFaiy/xPW+MsoY58fYTnFhvbQbPLPS78/WmP6SleT1hWFKw2CQHxabxyNd3PygiUz6RybFj1kqQgmFwe4swuRy6Mgf/pBHIO0fpeP6If7icW8JoAY61xCHsO4AUFmCFXXULS/53TiILLpfFv8P+IT2VlLo/eoAAAAASUVORK5CYII=;" vertex="1" parent="1">
                    <mxGeometry x="-22" y="-101" width="129.46" height="226" as="geometry"/>
                </mxCell>
                <mxCell id="15" style="edgeStyle=none;curved=1;rounded=0;orthogonalLoop=1;jettySize=auto;html=1;entryX=0;entryY=0.25;entryDx=0;entryDy=0;endArrow=open;startSize=14;endSize=14;sourcePerimeterSpacing=8;targetPerimeterSpacing=8;" edge="1" parent="1" source="14" target="13">
                    <mxGeometry relative="1" as="geometry"/>
                </mxCell>
                <mxCell id="14" value="GIT" style="text;html=1;align=center;verticalAlign=middle;resizable=0;points=[];autosize=1;strokeColor=none;fillColor=none;" vertex="1" parent="1">
                    <mxGeometry x="-195" y="-59" width="38" height="26" as="geometry"/>
                </mxCell>
                <mxCell id="17" value="&lt;b&gt;github&lt;/b&gt;" style="ellipse;shape=cloud;whiteSpace=wrap;html=1;align=center;" vertex="1" parent="1">
                    <mxGeometry x="283" y="-188" width="100" height="60" as="geometry"/>
                </mxCell>
                <mxCell id="18" value="&lt;b&gt;main&lt;/b&gt;" style="text;html=1;align=center;verticalAlign=middle;resizable=0;points=[];autosize=1;strokeColor=none;fillColor=none;" vertex="1" parent="1">
                    <mxGeometry x="341" y="-110" width="46" height="26" as="geometry"/>
                </mxCell>
                <mxCell id="35" style="edgeStyle=none;curved=1;rounded=0;orthogonalLoop=1;jettySize=auto;html=1;endArrow=open;startSize=14;endSize=14;sourcePerimeterSpacing=8;targetPerimeterSpacing=8;" edge="1" parent="1" source="20">
                    <mxGeometry relative="1" as="geometry">
                        <mxPoint x="24.36598115808829" y="407.9999999999998" as="targetPoint"/>
                    </mxGeometry>
                </mxCell>
                <mxCell id="20" value="git add" style="text;html=1;align=center;verticalAlign=middle;resizable=0;points=[];autosize=1;strokeColor=none;fillColor=none;" vertex="1" parent="1">
                    <mxGeometry x="-100" y="395" width="54" height="26" as="geometry"/>
                </mxCell>
                <mxCell id="21" value="" style="edgeStyle=none;orthogonalLoop=1;jettySize=auto;html=1;shape=flexArrow;rounded=1;startSize=8;endSize=8;endArrow=open;targetPerimeterSpacing=8;curved=1;startArrow=none;" edge="1" parent="1" source="27">
                    <mxGeometry width="140" relative="1" as="geometry">
                        <mxPoint x="112" y="240" as="sourcePoint"/>
                        <mxPoint x="419" y="240" as="targetPoint"/>
                        <Array as="points"/>
                    </mxGeometry>
                </mxCell>
                <mxCell id="22" value="main" style="text;html=1;align=center;verticalAlign=middle;resizable=0;points=[];autosize=1;strokeColor=none;fillColor=none;" vertex="1" parent="1">
                    <mxGeometry x="103" y="253" width="44" height="26" as="geometry"/>
                </mxCell>
                <mxCell id="26" style="edgeStyle=none;curved=1;rounded=0;orthogonalLoop=1;jettySize=auto;html=1;endArrow=open;startSize=14;endSize=14;targetPerimeterSpacing=8;startArrow=none;" edge="1" parent="1" source="27">
                    <mxGeometry relative="1" as="geometry">
                        <mxPoint x="184" y="245" as="targetPoint"/>
                    </mxGeometry>
                </mxCell>
                <mxCell id="23" value="" style="shape=image;verticalLabelPosition=bottom;labelBackgroundColor=default;verticalAlign=top;aspect=fixed;imageAspect=0;image=data:image/png,iVBORw0KGgoAAAANSUhEUgAAAR4AAABbCAYAAAClK+q9AAATV0lEQVR4Ae1dTWvjOhe+P6ZQLkwomTu8vXSmM6TD7dAP2qGEMEygDWQIYQJuCQ0NTUshXXTTzay66aKbbLLKpotussr/Oi9HsmxZkWU5VZyPnkWxG8vS0dGjR0ey9fivldU80B/5gDBAGMgSA39lWRiVReAmDBAGEANEPBTxUcRLGMgcA0Q8BLrMQUdRD0U9RDxEPEQ8hIHMMbDQxPM+vwUn+X9e7TRX+dBITiM5YcAOA/NPPJ9K0KuW4Jc6KuXLMOh0YdQ5h/t8fGXfrx/Cw3EDelX+97D9MUpUlvmkAlSczWodZvT/3nY18Afzy3EFbj9H/TKWxvdfr1qFa9Xf60V4wuul3ahvV/Og5vNY3IWTd9H2ui5j20Tz/blfYzbef+Jp1XxEe6r3pWqnNP6f8zadWr3T+ChF2vknnm0PRh0PrjWVuq2dw3OtCD8111hDfKrCC5JT+wqGLf43KG6OdY7EfOLyj/vdYPM8AOTnjwsYdW4CnwxbNzDqdGFYPYRtv048TVdKI3zYhPsPUeIolS5g1L6Boaadxspq42BxAQ8bYR4PZ5h3FwbFkPweWzcwbHeht83TpbFnKj6e8zadSp3j8O3g94UmniRnM7C2qvDbgaOSyopcn3OQMr+cVSKEvb3jwbBzA08FuaPrCT9S19U83NW7MKzUYSDdL9LoysL0o2Y1iGIfzrowaJzDqF7kgwIOGG0P+g2VeOzsEWU7Pc55mzqtawb9xQHx7MNT6wqeSscwaF3BS70Evws1eGbnZTiRKpH7cASP9XM+ijab0Ct+C0ZY4bi9QgX6TT66PlePoLSjRDxfa9FRuFGGklSGyAePOtAH1y3zQZufGpd+mefQn8Rm377chu+jWhG+x9gc2DfF63q/HEKv04WXH19Y52dpNBHMuH38vt72FiCBiPtFOl1ZOdam4RQZ7+sVcep8CnfveLsNK2WWXzTieS3x2GM1EYdTbB/hu2U+OiAeDrwhkgR2rM4NvFSOoPS5As+dcMRa+eCvyZx58HBwBPfH5zDE8L4irQv4U6Nhowp3O0dwV27C4AynBRLg2Fybr9f0z25gpIzcK6scXGxqxcJ6eUpxBcFUKzGfPAibhT23xQabuqW22Qcp78w41ZDqMwMA68gA64rtNdj/XzriKdRh6K+zeZUbGHll2JPqpC2LRQ8X8LDOoytOWLtw72H5W/DHQ9zsw9PYVOu1frPEqg0OpTouM0FMq27OiEeMTGz08ufl8gj4u3wFo3Yd2lKDfS+ew8gf5bCCLE2rFpkasd9iOqoW1JjPzhHc7hzBn9oVjFoe/PH/x9/aG7xjyQ6NzQdtVqZqm/unr7LZOyjB7adwLUO2I6tzVt9mFbz8R9jDv/VdePRwLcyDa3/hl6XpXMIgWFT2F+gP/ouskcm+yzFC4VGLqIt8Xfy2oiWeL7CHeKifwoC1t4ik5Klfsj1BGRLOwt+ieRqxmgKHYf7cVvo/2Q+ZEc91rTsenSgAjE+jH+m0oJYAl3RdACQuHbOndhTpaCsbFXjBxVF/tE5rsyhzlkdWX/ZEEKMv/695Cn8+ha8m8DTJHR2jlCACZE8Iw3UirKPWt0q7BwOUH3WNaoeQW42ShK09Zr9G84wjnkVsU3O9k4kg6/uJeOI6x2oeGABFx4wcl4B4xBR1rcheS3hWnvbxjq4n/ACk7/i9/YNNHjnld+Gx2YVhOYyKbIkHySbIFwePD8eRqbqVPdKgE8kr+J2IR++X7ImJiCeJeNQOEYCYN9Yijo4qGbRxbUaZBlt1dLa+I0VNgpzPjoMFf7UsBnxNxDNGPOsYWYZrhFb2KG0z3smIeMZ9kj3poA2ZEQ9beGxWok+5lKcb11V8zBpNw+b9Kdd4hHO1oNeAMy4ds1lEBtJ9e/l/g9E5rc2bax+h8PdsGjvWL/5iarDwLsg4xu8iH74mF31dQV3n0fmWr+01gnezcMrjmni8nSO43gjbidtsSTwpcSj8QUd7XGdGPDl/dHwu70IJFzQ3StBvddlTEPFomS/cXkH/YAsKf/8DhY0SPJ1dRZ4CvV/zF0TzH8ErX7L3QYJF0rXowrEO9AIcNvlwm7k9eN/7tS24q+OCcw08n4hsbBZl7h00+ZqKdL+4luVR55dbfLemVQ/qxdLgwr9YgA6OYWdGwgjWdwQx+2+Ci4cNLJ9gIXsLPP/J4Is0HbMnHrM9wofshUYWfYXkxq/ZEU+aNhVl0tGedNBXmREPFnZSPOVvEgcheQ3aa1GD28f4+NwP31sNuD6IvscTv+4yvnit62ACILb5jNnc9OBOeXM3yWZR5jwTT+4rPhbHx9mcWDjxaKZRYmHdX98Rj99FHfH4gOs8/msSY/m0L6H/I/r+lj3xGOwRxIfbNGIJ3o54sA62bSrXm86jfdnkDwfEY1+YMMRmurGnRC/i3lkdC/mPsK3sMVJtsbH5/VoYMaj30//psRTnM1d+tmnTOBvo9/j2nAnxUIPENwj5hnzzFjBAxCOF6G+hwamORGzzgAEiHiKe4AndPACSbHgbxEjEQ8RDxEMYyBwDRDwEusxBR1HN24hqTO1MxEPEQ8RDGMgcA0Q8BLrMQWcaCdNe287P/k3wtDZTeicvEM4ubHQl0u4qn2UF1Lz6h2+nicpwLGsbLFu95j/iiRPZthRpJ7F388AwqX/GxNfLhxEBsCw6CgqGBXKpUuTKtsNk9AKqTVlMeZPpGmk+WiDZneQzm7KS8sDrrvKxKSsuzfwTD9vJrJdnSBRp9zc/kth7DPm8wj+lYjOUoMUtLprNtHGgc/I7s/0Gnr6O102rGJCig6exL6msnweoZS22euhxbFteUllZ52Nbni7dQhOPrkLyb2yfkKIgKF+f2rmBLKdW5gQdy5V/XHWINL75hRuEFSkPcX+W9pjKKjGFTdxk/AV+sS97EPGINnJAPPYC2iT2Ph9i76LxGfHERSqWYviYl6nz4XUbwfztz2Xoe+ITOlfwXCvDb2UDsbCb6Wq3uyDvcGf62P4njHiEIWttRz/Jk2TPff0Kho1y5CscuUINXloX8Fj4h2txW5T186AKd+tc1ZFvlp2AeFCr3KIsVzaHPh6PJF1ec0A8fMcvib0bBOr9aISDD8PuCQA4QUSjB4pDMXzfJiPx+CL/RsF8Nc0Bfmkk+gkcuS58J/0lPPof+2PX8ofw4OtDD/De9gX0A71o6WOBalkaAf/cBv9QgaxPxJQVa0f8qyi2ZUltNjHxWJY1DZtln7s+d0Y8Qn8FJQ7kc/G5ExJ75yPIPIi9uxLDF2A0EY9OLEwVzOfi7024kyOc/De43dkf++oolsm0g7xy7CeCXm0PSriwqdEps+k3m9Z5cCvbZ0O6LohHysNUL/SLa5tF+07jmBnxaJ2mSGDGp9FHCMapglDRi5tKSA0alw+zZwnF3gWQ4uotrotjUjptu8kdM8GHK/4i93PlEE4kdUdRfuQodICkr45GridM/WzaVOTHhM68c3jpXEFvWy9nYqq7yAePzIevjHRtynJps2y/63MiHgEKDUGxhg6eSIgnE3hcbLF3AaIkQrFNZ+oQNj7Ecn6pInHNU3j4PN7ZxSeRbg3aSC7sYXUv1LkonRdqSAufiKOpLJEGj1kRz4pDm2X7XZ8T8QhQxBHPEoq9CxBlRjwJPhT24BFF4k4KZeihDnPnFFSC0aoVStEr5mEiA3bN0p4/aMPZxUJFPC5tltvF9XlmxENi73yNx0Z90XUjx+XnjHhQHF1D3FiujWA+phtT+lO+X8bqYHh3R66jiXhs7eHrJedw/wHrwD8MeT3lNR69QH34dMlUL6y/a5tln7o+z4x4SOzdpAUcgst1A5vyMxEPe7vVF3hPEtXnGseX0Dv4xoX88b41/hjZRjCf34+Pqr/43+f6Ah7T3m7CfT70DSMNi/ey+Ds+p/BQ2PLzC6dsNvaIJ0TPJf4d+ZV3+9BrdWFYO+RPtaQIy1QW+p59qVV8mEASz1dldOMF6sP6m8pyabMJM66uZUY8aPCYcPoZib27ashJ8jERDxtdtetb+ujmtiqJ9ON90nRmrN2TBPNZuZfQ29+UNrDyb6lH3t2RCCBS/7V9eDq7CT8aoCzqJtnDpnNnx5H3eDa/NmDYuYH+TkhirExDWcy/MT4UT3uF3fEC9SHxrBjKcmWzsGfaRwfEIzkmDgjK7zbTjbHQW8lj2o5R8yex9/TtPIkP0c8iWpLv59/rChf15WuTntu06aR5T3KfK4H6ScrO+p6ZEE/WlaTyXk8as/bhdeUShvVS7Ls7s7aPyk+HMSKeGUdSBNh0gCV/LYe/iHiIeKR1lOUANZHT/LcjEQ8RDxEPYSBzDBDxEOgyBx1FJPMfkUy7jYh4iHiIeAgDmWOAiIdAlznoXI6mJPa+mNHTQhOPKxFyV/m47FDzlNe8+ofE3heTdBDb8088JPY+1YiExN5f13mThNNz+f/grtyAvncJg1oN/hQ+TtyeSWXZDlau8rEtT5du/onHoF9MYu+v6zRCB2cSMXwSe+e+N27cXC/DM26ZaDa5GmKdbyt5/rE1EfkYy0qxZOAqHx2h2P620MSTVEm2V8ZiU2FSPqmvG8gydV4pAJU2b1f+mQWQF0HsXfjlRGpDpmao7B2zbTeR308pP9t75XSu8pHzTHvugHhI7H2vgBrBXKj8uXoEpR1Pq6uc2yCx92HrHPrFb2O7vJdR7P263ICnfX+HuyALRXUzscOS2HtcWE9i7y+dLggx87tyEwZnGFKPy7WGu5XHryUCUAD31UcSex9I7XWbkdi7aF+uoJii/Uns3Uw8ssC7fC62/5PYO/cfib3n4S2KvTPiWTvkuj6V3ams8ZDY+zbvZKgRIohHO69Uws74NPoRgkUQMcp32NBJ18UoFJeO2ZMgVJ7WZlHmPBzj6q3alpRO6wM/MrPxoVjkXmaxd/TpfSNeyVD1ue5/k59FeuxzQ0cC9SLPaRwdrPHwqZYc5cjnC088WiGnUBdGC4ZFWlw2ELcA3KuJJ8GHWM6yi71f1674RwI24mYOyb9rsaZOvUnsPQ/LEfEcGsNiLRiIeAKfMf9IaoSCzOKOyyj27oJ00F9arCnEQ2Lvq1HiIbF3PqLZqC/GdUrXvydFMqK8pHTXJPYekUkVfsPj7zI+aLiAh09cg1q+pp6T2LvCoqqDov/bTbVI7J3E3hE379e24K6Oax018HycLavYO6/XFfT3hej8x0D8vfB3dGpFYu+pSAedZ0c8CLoxkW0Sew+mJFEyj4JyWtdMkQwL67VrMyT2HmkPgwA782+MD8U6qMiLxN5TE0/6TmIz3SCx9/R+FSCe16ONuDqJvS9fu+vw6OCp1ttwlM559Ft2bU9i79n5OgtcE/FkEOFl0ZBUxnJ1zGVvTyIeIp6ZrjMtewej+ukHBCIeIh4iHsJA5hgg4iHQZQ46igL0UcBb8gsRDxEPEQ9hIHMMEPEQ6DIHncuRncTeFzN6WmjicSVC7ioflx1qnvKaV/+Q2Ptikg5ie/6Jh8TepxqRkNj76zqvSTh9b7sKvWpj/O/gv4na1FRWmoHKVT5pylTTzj/xGHZ6k9j76zqN0MEhsffJ/WjaMR4RxG9xadwRbqFIsVtf7rCmsuR0Seeu8kkqx3R9oYnHVDG8xvbKkNh77Ojqyj+zAPIiiL2r+Pz14wJGrVO4+zAZ0bnys6t81Pql+d8B8ZDYO4m96zeOCiDmPhzBU+MShmzUfzti76L+eOSk48FtPiXpkNh7nMNI7J3E3g3Egx0nQVx9RU1zgF/twO9RVeGX5qlj7msdhp1LePwkYdJSFH2srAzE3n+WUJPnHP5s/BsbfcokFTm3rFduo8K+4TUobgZlPDa7MKwd8S96WOYTKVvje1fXHUQ8drIYJPbOOwmJvb89sXc2tRHyGC1valMtEnsnsXft521cjRau8jHp8chlJKUzrRmwawmC+WKRe9nF3nP5XXg868LIK8P3CaIJk59Fe5HYuyJ9qnXaInxlQoxUkSOJvQug41Hbtn7HYtcivusCe7KDcqDr4VRp2cXehb/4p330X00RaeKOJj8H95DYe1RzWeu0RSCehEef8fWaDFwBgCYYEdPemxTJiPyS0ml9IBNPgg9FOXhcJrF3rMv2u5BcWT0Nr4fIftCdm/ws0pPYuxLxkNg7B6CN+qIA0bSPSYQiyk9KR2LvFa3YO5LAsLIfLPaiP/nb1vpBicTeU422dovLJPZOYu/Y8d6S2Dt/mnUJvR0u9l76XIZ+qwvDapSM0C8k9p6KdHAUtyMedC6JvTf5+ob0hQX0y6z+TJEMC+u1azP6R+e3VXxkLNZvom/njrV7c/zJTvtYub9zCb398NHwyuo+PLW78FK22G5gEGDX4lCxBxdoR2fHkShm82sDhp0b6O8oj8QTylLr9VIvw4mmzUnsXeMU1x3DZrpBYu+zIyTX7S3ye8ti7za76N+vKaSWQV8UbZP10cF7PMvXQbJuBCovGUMk9p7so0XCERHPEo8qiwREsnW5iCWpPYl4iHhmtsaUBE66vrxkRMRDxEPEQxjIHANEPAS6zEFHkczyRjK2bUvEQ8RDxEMYyBwDRDwEusxBZzsqUrrljYyIeIh4iHgIA5ljgIiHQJc56CiSWd5IxrZt/w8Qh8dtfxW43wAAAABJRU5ErkJggg==;" vertex="1" parent="1">
                    <mxGeometry x="107.46" y="302" width="153.99" height="49" as="geometry"/>
                </mxCell>
                <mxCell id="25" value="" style="edgeStyle=none;orthogonalLoop=1;jettySize=auto;html=1;shape=flexArrow;rounded=1;startSize=8;endSize=8;endArrow=none;sourcePerimeterSpacing=8;curved=1;" edge="1" parent="1" target="24">
                    <mxGeometry width="140" relative="1" as="geometry">
                        <mxPoint x="-77" y="157" as="sourcePoint"/>
                        <mxPoint x="158" y="157" as="targetPoint"/>
                        <Array as="points">
                            <mxPoint x="42" y="157"/>
                            <mxPoint x="109" y="245"/>
                            <mxPoint x="106" y="157"/>
                        </Array>
                    </mxGeometry>
                </mxCell>
                <mxCell id="24" value="" style="ellipse;whiteSpace=wrap;html=1;fillColor=#f8cecc;strokeColor=#b85450;" vertex="1" parent="1">
                    <mxGeometry x="15" y="146" width="25" height="20" as="geometry"/>
                </mxCell>
                <mxCell id="28" value="" style="edgeStyle=none;orthogonalLoop=1;jettySize=auto;html=1;shape=flexArrow;rounded=1;startSize=8;endSize=8;endArrow=none;sourcePerimeterSpacing=8;curved=1;" edge="1" parent="1" target="27">
                    <mxGeometry width="140" relative="1" as="geometry">
                        <mxPoint x="112" y="240" as="sourcePoint"/>
                        <mxPoint x="419" y="240" as="targetPoint"/>
                        <Array as="points"/>
                    </mxGeometry>
                </mxCell>
                <mxCell id="29" value="" style="edgeStyle=none;curved=1;rounded=0;orthogonalLoop=1;jettySize=auto;html=1;endArrow=none;startSize=14;endSize=14;sourcePerimeterSpacing=8;" edge="1" parent="1" source="23" target="27">
                    <mxGeometry relative="1" as="geometry">
                        <mxPoint x="184" y="245" as="targetPoint"/>
                        <mxPoint x="184.2735582822088" y="294" as="sourcePoint"/>
                    </mxGeometry>
                </mxCell>
                <mxCell id="27" value="" style="ellipse;whiteSpace=wrap;html=1;fillColor=#f8cecc;strokeColor=#b85450;" vertex="1" parent="1">
                    <mxGeometry x="171.96" y="230" width="25" height="20" as="geometry"/>
                </mxCell>
                <mxCell id="32" style="edgeStyle=none;curved=1;rounded=0;orthogonalLoop=1;jettySize=auto;html=1;endArrow=open;startSize=14;endSize=14;targetPerimeterSpacing=8;startArrow=none;" edge="1" parent="1" source="33">
                    <mxGeometry relative="1" as="geometry">
                        <mxPoint x="337.0799999999999" y="247.8218635110295" as="targetPoint"/>
                    </mxGeometry>
                </mxCell>
                <mxCell id="34" value="" style="edgeStyle=none;curved=1;rounded=0;orthogonalLoop=1;jettySize=auto;html=1;endArrow=none;startSize=14;endSize=14;sourcePerimeterSpacing=8;" edge="1" parent="1" target="33">
                    <mxGeometry relative="1" as="geometry">
                        <mxPoint x="337.0799999999999" y="247.8218635110295" as="targetPoint"/>
                        <mxPoint x="337.0799999999999" y="295" as="sourcePoint"/>
                    </mxGeometry>
                </mxCell>
                <mxCell id="33" value="" style="ellipse;whiteSpace=wrap;html=1;fillColor=#f8cecc;strokeColor=#b85450;" vertex="1" parent="1">
                    <mxGeometry x="324.58000000000004" y="230" width="25" height="20" as="geometry"/>
                </mxCell>
                <mxCell id="36" value="git commit" style="text;html=1;align=center;verticalAlign=middle;resizable=0;points=[];autosize=1;strokeColor=none;fillColor=none;" vertex="1" parent="1">
                    <mxGeometry x="38" y="395" width="73" height="26" as="geometry"/>
                </mxCell>
                <mxCell id="37" value="" style="shape=image;verticalLabelPosition=bottom;labelBackgroundColor=default;verticalAlign=top;aspect=fixed;imageAspect=0;image=data:image/png,iVBORw0KGgoAAAANSUhEUgAAAR4AAABsCAYAAAC8VN2oAAAZwklEQVR4Ae1d3Usjv9f//THiwi4sj/tdBGWFLeKClFWEuvRChFKouC5FLLT4QqHiWnrhgkIRweKNN73ojTf9885DkjmdzDRv06bTF8+FTJ3JJCfnnHxykkk++d/ShxWgP9IB+QD5QJo+8L80C6OyyLnJB8gHmA8Q8FDERxEv+UDqPkDAQ06XutNR1ENRz1wDz8fMJmxn/hu74fjKhxoUNSjyATcfmH3gyeWh/pCH7XhkkjmEu34TOv1zOMnoK/sxuwdn/8pQfxB/1dK3KFA55pPIoXQyx+swpf/XS6WBPrhe/hWhmI/qZShNoL/6QwnycX1nf8EFe97IRnX7YQXi+VSvsrD1NWqvfIvZJppvpnLMZTzJibTxfNCe8fcS2SmJ/mfcphOrdxIdJUg7+8Dz+xQ6/VM4UFSq+HgOd4+/IKN4xg2RK0GbgdNbA9o98de62hhqHNZ8dPnr7htkngUHyfy9hE7/Bp4CnbR7N9DpN6H9uDfQjUjTlNKgDqtwko0CR6ZxCZ23G3hidvoUexYr6+mNdRaXcLYbpjvrsrybcHcVgl+1dwMs7fVvkS6JPBPR8YzbdCJ11vm3h/tzDTw2ZXNn7ZXgpwdF2cqKPJ9xJ+V66RYjgP3l9yk89W+gXpAbuhrwI3X9sAJHL01oP/yBlvQ+plGVxdJ3eqVBFHvWbULr5Rw6L78E8LEO4+0Ubl/iwOMmD5bt9TrjNvVa1xTaiwfg2YGLXgPqjQK0eg24f87Dz8Ix3PHfh7Al9YDLP3JQfT4X0Ue3CvXG9qCHRcWtHhThlveADbh7yMFG3OCF40H0wqOYl8NIA8J82FXl9IPnjvkwmS9e6kGZ53A9isyBIZd3Ax09Bg0sBQMP6iuVpdbLHlz3m3D/9zu3CU+jiTQjeX4S713/3gQGIPg+plGVtcxtGg6R2XvXV2zoXIGjr8JuTw+HPL9oxDMu8Lj7qtUPJX1iXekaRrE2XXgAHuF47cccZHIFuOvfQPshB5l8Ee77YY+1hHMp3VM4q+Xg5N85HwY9PUjzAsHQ6OmlBEeVHBy1qtDqsmGB5HB8rC3ma267N9CJ9dxLH4RzMVASYb08pGjAYKhlzWcFUOZ2IE/xqszrlFjmwElFY2ZDDak+U3BgFRhgXVu11WTAU/gDT8E82/7DDXReDyOdibIsDjyXcBYM2QRgZeHktQmt2iaUX5nf7EB9aKg1rt4cfdXFD6dgN1tjnqfn3oAHeybeewXjcrkH/NlqQOftD+xLEdB64xw6QS/HlMbT9I5hT0rD72kaqtKpWT6VHBQrOSg/N6DTO4Vy8D+7l98VDUs2kjYfJnNsqPa5VhlL5v1aHoq5cC5DliOt36K+JdjLfIN19pfNQvWVzYWdwkEw8cvT9OvQGkwqBxP0Vz+0wCIiGRG1YF2UulUCz3dYv2LDrQq0mL0HkZQ89LPLg+WqrxidiTyNvprAD9Vluff+7/H91IDn4LE5HJ3EHFCfRt3TKZ1a6olsz9HgunRcnudcpKEt7bJILuytk8qMZU7zyuvLvwiy6Cv461WgnAuXJog09obOopRBBMij2nCeiNVRqduY3QcdFEbFj3uw/CEKEq7ymPUazVMHPPNoU3O9Zw8ECXh0jePDCnAHxIYZuS4A8OAQde0XtPpNuGtEv/aJhq4G/IGTfxXv3l5tiMgpk4WLXhParTAqcgWejvRFjeefLUSG6k7ySJ3OQMbIPQIetV7SByYCHhvwxBtExJEDcMJGjM94j25ptJh2Ctc4GPC5mdgw2Kmh8/kdKWpCcO4WBhP+8bK44ysinmHgic4ROslj1SUBz7sDHu7c3SJsSc4R/7qRD4Zjcho+7k84x4PKVTq9VL4tHcocXye0nlkbDL+Syvx5Y7rzO6zOQ3oJJlPvpDVOLg1dzMlFlyvE53mGymKLCvncXhnygS3YkMc38Oyx+bxcaCdhazfgSWpT9CO6ukdOqUU8y0HveN/KQoZNaObycMsWk0lfQT5X2MRtA25rm7xhf8nl4aLbiHwF+rgWTIhmvsFeqw6drjRJuhGdOFY5PTqHSz5C5lCej2ubcMQmrN+OYS9oNC4yY5nrtaqYU5Hex2dpXlV6KT6zyeVw8l8ATwWOcAJ6cA0bMwOMwfwOAnowT4MfG0RZaKNN2L8q86+Z8nDMHXjM8qAO+YJGHn2F4CaeuQFPEptimXR1Bx2mq9SAhxW2dVURK4mDkPypewz7a1GB9/+xz+c44VmGg1p05bJ+3mV48lrVwNBBXPOJy8y+kh39SCYzljnLwIMdQ6smgEUAj2IYhRPrwfwOfn7HOrKrDEhD+bzV4fZvdP2WO/AY5EHgYxGVFuDdgIfVweaHcn3pd7Q9uOjDA/AkL9RluLEei15cKjPJNF8y32A1tscoXp6LzB/Xwogh/j79n9yXdDrzpWcXm+pkoPt6e04FeMggeoOQbkg378EHCHikEP09GJzqSMA2Cz5AwEPAM/hCNwsOSTK8D2Ak4CHgIeAhH0jdBwh4yOlSdzqKat5HVGOyMwEPAQ8BD/lA6j5AwENOl7rTmXrCpM9WM9NfCZ5UZkrvZQHh9MJGXyTtvvJZVIeaVf2I7TRRGo5FtcGi1Wv2Ix4dyTZSKBDZ+1gRy6hk+EPk662QrzmtRsIIwzrPw2yOfDtMSgtQXcrizJuc10hxaEGCiNulLBfd+8rHpSxdmtkHHsNObytJe7D5kcjeNVHpGPrJXFUHFLRPbItLfId+ggalc07jfS57lPsH0yv5dCYkj62sTO1U2iY0HmOBrSysv+3qKx9bOabncw08poqxZ3yfUIxB0PaOl+cGsPSSv6dG5Es/03DkbbZBWNrUKus1TXlMZWX4Lny2yfg7bPPTNgh40E4egMedQJvI3meD7B2Nz4FHF6k4kuGzvEyNjz13Icz/cnAI1694hE4D7h4PYS+2gRjlXvok+JjlHe5L2UN+2ADn2uabjGWu7eiRPDZ5Tp4b0I4dIrBcOIb73iVcFP4D17IytRIcZQWro9gsOwLwONbLl8wDHXvq3HT5eQAeseOXyN4NBPWBEYXzsR3WIzigN0fwSIYfyGQEnmAuzkiYH6RBkv9irQi3vegROLIDi530dagGh/3xZ5k9qAb80C327tsl3A74oqXDAh3kWeb0tuycr5CVsdprwhPS4LqWJdlsZOBxLGsSMss69/3bG/Ag/wqjOJB/43EnRPYu5llmgezdFxk+OqMJeFRkYXHC/CU+NK3CkRzhZLahWNkZOnWUlcm5gyQeJ5QDr2PLwyhc+NCowmX6yYd1p3Agy+cCuj6AR8rDVC9Wd98yoz4ncU0NeJRKi1Fg6tOoIwTjUAHneHRDCcmguny4PNjLYfoFIHtHR9LVG5/j1ZZOabdAXy46XAomue//7cG2xO6I5UeuAQ+QfOpo5Lll6OckTyA75xV6PYf7fgOuf6vpTEx1l+XiOhwz0nUpy6fMsvy+fxPwGACKGxpJySLX+SZ7RyeyAYprOlODcNEhK2e7ESOJ61Xg7GC4seORSEUDN5IPeXjdkVP6taBdsmAqC/XHrmkBz5JHmWX5ff8m4EGnUERG3KkWkOwdnSg14LHoEOVhV0YSt104hDrjYe5XIA4wSrZCjEblKEthT5a/i01RnjKToXs5VxGPT5lRD5O4pgY8SJwuE7kT2btmfU2sIU3C8CxPX8CD5OhxUnxWBto9/kwmzGfphpj+YkNargPD2h3+3AF4XOUR8yXimOX9B8azPfk5HjVBfegjtujKt8yyTn3/Tg14kNOXyN7ZF5eQLN63QZPkZwIevro1IHi3keoLjuM6XNe2BZE/e29NfEZ2IcwX77NP1d+D87m+B5zHVTjKhA2Pg4bDuiyxxqcCZ4XNIL9wyOYiD34hum+Ic+SXvu7A9VsTnhSRm6ksZgt+UiseTMBOzQ10GqfR1RPUh/U3leVT5iQ+NGra1ICHCRgnTiey99CpRjXgOO+ZgIf3rpF5LYloXTGMOXi4BL6CGd+RGmnc7irC/LxM8s/zYEAWfs5Wrt3RRYZrO3DRvQkPDYhN6trk4cM56WwwpuPPpTI89W/gNj7JbCiL6xf1Ebvi1160n56gXvIRQ1m+ZEZ5Jn31ADySYnSOELtPZO/JdTZpR0gjfxfCfJYGoyVZJjEsDyf15Wej/naRZ9S8R3nPF0H9KGWn/c5UgCftSlJ58w90+Yc6tJ/z2q9LZOP5sjEBTywaIweeLwcme82nvQh4CHgoiiAfSN0HCHjI6VJ3OopS5jNK8Wk3Ah4CHgIe8oHUfYCAh5wudafz2XNSXvMZPRHwEPDMNfAQ2TsBT+oO7IuE3Fc+i9r7zqp+iOx9PkGHtZPZj3iI7H2igE5k7+M1Xhtx+vLGDzhqleH2tQ6t52MoH4x+HI+tLNeOz1c+ruWp0s0+8Bj4i4nsfbxGgzw4o5DhE9m70L1x42b2EO7YVoleVbAhPl/ybRz3fzdH6kyMZSWYMvCVjwpQXO/NNfDYKsn3yjhsKrTlk/i5ASwT55XAoZLm7Us/03DkeSB7R71sfQo7CM5myPaOSfdc7Yb5xXf6u76P6Xzlg/mNcvUAPET2vnpQhNuuICq/e8jBhgZ4lneJ7L3dO4frxvZQj7+IZO/5VhkuKsEOd+xAYqyb1kZLZO8hakeVRWTv7X4TkKj8qFWFVpeF1MN0reFu5eFnUZ3qdO3jPpG9s+GPiXweKSZ8kr2jfQWDYoKIh8jedU4vgEcmeJd/4/Z/InsX+iOy9xV4j2TvHHjW9gSvz0N2KOJDYDJdbUMkInv/LRoZ4whB4FEqLRZ26tOoIwQeQSi4YdB4tue2dFweInu3MhUq7RYMLVx0iJPci0z2znzt5EXPZIi+aLqa9IzvsTb35ImgHvOcxNXDHI9bxKNU2jwAT4zAqcP/D3lh9PVSg+UkjDhqnuMCM5ar1IEMPBYdsnwWnez94LEBnf4lnO3qRg72+yY9oy2I7P3DCixExCMx6Q2MixOFSB4ej7o0k8uq96d5LzXgsehQ1sEikr37AB2mIxfgIbL3GPAgyTaRvY++gExuoD5++wIeInsvgu4T916LfWi4hLOc4KA22Y3I3qUe3aQo8cxtqEVk7yvgxKubSPf28NxkPxPwENl7E8Ylexf2bsBtDUnnvw3I3+N2IbL3xI7vBjxM0XGSbSJ7Hw844s6b9H8T8PCwXjk3w86aGu7hiewdyfDDuT2uX40O8csv2sypUyKy9/EaDJG9j6c/dNZ5u7qQqxPZ+/vwDQ9ftd6HouatkS+avET2vljtjIAn8dBysRxg0QCK6jMf/knAQ8Az0ipaauDz0cBn1U4EPAQ8BDzkA6n7AAEPOV3qTjervTDJlV4UR8BDwEPAQz6Qug8Q8JDTpe50PiMLIntPL0rxabe5Bh5fJOS+8vFpmFnKa1b1Q2Tv8wk6zLdnH3iI7H2iEQmRvY/XeE3E6eulEtQfysN/Vz9GsqmprCQdla98kpQZTzv7wGPY6U1k7+M1GuTBIbL30fVo2jEuE+K3e4Ia94ltoUiwW19usKay5HS2377ysZVjej7XwGOqGHvG98oQ2bu2d/Wln2k48jyQvcf9c/vvJXTeKnD0YzSg86VnX/nE65fkfw/AQ2TvRPau3jiKjrj8IwcXL3UQvf77IXvH+rOrAJ1TONhICDpE9q5TmNid3n7MQSZXgLv+DbQfcpDJF+G+34TBLtxMcMZQ9xTOajk4+XcOnCRd5p/NlcS9lxIcVXKgJE7ncz5i3HzbvVHslPZIZh7IbCIGx+EKkb0P71jnDc9Fh0Ea1GGxVoTbHjuPqgTbiq+OgmKlDtWc5JOOpOhLDvL4JnsXlBfnUN5d00afMkhFfjvWy7fMERkUNhj3uYeIx40Wg8jeRSMhsvf3R/bOhzZIj9E7ndhQi8jeiexdebzNuL2E7/dNfDxyWbZ0pjkD/sxCmI9R46KTvS9vZOGi24TO62HyyMeR+pTI3mPUp0rnJLL3kRxQBoVxftsABfO2pVPaNgjP+TPs7SPXkDCflbPoZO+oS3G0T0gWhvddriY9D94v/AH+5ey1oPUtp3wmMLwayOhnHY/bUEtZ2XkAHsunT329RnMu2TiT/m0DFCzflk6pAxl4LDrEcth1kcjeWV1Wv0rzUEwnhuUhsh5Uv016xvRE9h6LeIjsXTigC/siOtGkrzZAwfJt6YjsXT2xzkDg6WEnEnmI1dbqTonI3hOFWW4RD5G9E9k7A7KPa5tw9MwOtjuGvcDPBN/wJVwUvgdk6N9h/x87naEKR5kwYuCdl8O6LLHGpwJnBSRZD78mCT8UBOw6efAL0bhk7+JrVh2uK0KOTP4Qbt+a8PQYBSMmB5G9JwId5hRuwMOUS2TvVeAHAkqNjullWn+mSIaH9ZE5GSQzV6/ZIbJ31E80mmEAyudcAl22nw9h69OwzYnsPYWG4DLcWN9YnVqDVAGBC1G5i8wf18LeV1XOIt9z0eGikr277KJ/T77hYR3PMHovcuOhuk3H3kT2Ph29T8rfCXhSiPAmZTzKd7Ea43uyJwEPAc9MDWnfU+N7z3Ul4CHgIeAhH0jdBwh4yOlSd7r33NNT3cXwmICHgIeAh3wgdR8g4CGnS93pZrHXd/ncPYtyz6tMcw08vkjIfeUzr07w3uUelzT+PfvPqHWffeAhsvfFi0h0Np1S9Fl+bULn+ddoeg6IxTr9cziRtnfIYD4RcvVZ0KFD3WU9yL9nH3gMu3mJ7H1O17EYbCo7Zyq/OevlDdQLo+vS5ocuu8oT13VGdGiru65ecw08ukrhfb4XyWFTIab3dp0Rp/BWH9+RyAzpx0Qa70t/iww8o+rIA/AQ2fvckb1zAvEqnOR34OJVHLty/3IMB7HTDxhJe/X5XJC0d6tQb2wPDUc+ZmUi9zq0/uVgI7YJ0qwfd/+xlcWPk3k5hJ8HRbjtinrdPeZh+/800cynHai/NaHdGj7n6kskj1+wVTqGdu8Y9hGEC+x/UQa/vhxCBp+xqyNJu2vDNesQy7Pb1KTD1coptAf1EHZpXW0Im7P6dkvwk9XNVvdADyb/8QA8Ync6kb0bCOoDQ/AIjO9Sju5gdnU+b+myjIi/Ae3XKlRrOShWDuGakau/lSGPxFU4fjeR82cLnNC//XoMJ5UcFK/K/P8I7YOVwN/RfxzKErvtz+HutTyQhx0o0HlRz98oSeM5aIh6Ifn8SIcOOJK0O9nUqkMGPA42temQsxcGvsns/3YzoPDgE/BI2Wo9cGEFkFS/o/Efb8CDp0kwzlf59/3f7xwxiexd9LqzQPYunLQJtxWJASAAmtuAL9vFXuKkzEP4KUU4X2qM+iMEVp5P7xj2pDT83iCNG62KS1kC2KtwtBZGOEKeChwhoAadAGvwxWc1//HW3zp03v7AvlbmMH+WjwA8NRkYez7uUMuuQwQes02tOuQ+cAnlLItq/sD94yncdQs8kmMyPMknwsidaXe47lzmmA7XG+fQ6QtbpAY8SuXzsX7IvatPEzqy3EPYDG57jnnp0nF5LETlSWXGMqd65b1jqHchSzS01tcr/l60EcapPfX5oE3dgEepr9hckdKOMR8b5PP1F7T6Tbi7+jY0fLTLHK2zslwJ4JT5Sc8HMmnuKd+P1V10JnHbRG2qLCeWT/1NTLSzCKdV24N67w/sf1iFoxe1rnR118ssZCTgMfRYXHlKMqzQwHoFY8OKOqnS+BqHm1haJfBE5dTXK6w7G8PX2dlmQzoK667PB9O4AY9LWcpGoAEe7H2LikjILnNUV8pyJZsq85Oe2+ysfD8GGGrgicrposOT1ya0aqvws3UJ9cI3OHllywQ24ayr/vKnq7teZgKeQU9nVJ6FqFyvYGxYUePbnCyV556Ahzlpp1uMTt7GGoRdP27A41KW0o4a4GFTArozzFUc0qbTIZTlSsCi1IH03GZz5fsxPbsAj4sOGb3s/d9tOHoR65Lyjw2oF5iN1OuUdHXXy5wy8BDZuwAgF/ZFmyOO/dwBeOz2EoCBc3go03KsQWAj3pIaWpTw3AV43MrijYDNHUlzM0KeYN4CZbCs3RHyXcLZbthp8EWGg3mp8D6rt67xoU6UjRBlka46sne7DnGOJ4xGsezw6qjDxiV0HktQ7bIhluCCbrVKcM/mayRZMV9d3W3+k9pQi8jeZ4js3QF4XOzFG2O3CD+D4crHbF4cPSw10M+VCnT6Ibn6l1weLroNaQLaBXhWwKUs3gh6dbhtZWHj63/w+UcWqiyyiR2FzBuFZX0Xj4j6TXjqNeCp34DrR1aPMIrlq5Ez3zg5/V6rDp1uCfaC/+MUuCby+UEDZg2eD1nLkI81cLsOXYDHTYdLpTJ02DIB/IJVKvNlA/IhhC51t/lPasDDFExk7zNC9u4APC72Wt49hBb7DI9zPOx43sZppIGyfMSJEUG6XhkOanIaN+BxKQt73wP+9QTLq8KJFLksGdbuIAjgdavAlhrkYD/739B5WDyKwXrHr/GvPGs7cBGZCwsBDMuykb2bdegGPC46XAo+uQ++YHFfYcf0ZAdTE651N7V3D8ATDTtRkaary3Aj3muY8kvjmQtRuYvM80jobbMX7wHX/hs4ps4eLvrRvYv3TWUh8OBCPlV5OPQ6Y5+MY5GF6X/THI/pvSTPXHxDVackZbC0Jh0mzcslvcp/pgI8LsJSmmQNg/Rln2thOnIljf+8u8OjHRbxFGslEdnh8CMBYJFd1H5MwENOlKjnn+WGhFsmMOIZR1ael7Ql4u7xEPakhYnj5E3vrgABDwHPwgAPNWh1dDGLeiHgIeAh4CEfSN0HCHjI6VJ3ulnsgUmmdKMlAh4CHgIe8oHUfeD/AZ6sVkH2lAcMAAAAAElFTkSuQmCC;" vertex="1" parent="1">
                    <mxGeometry x="-62.00000000000001" y="433" width="140.34" height="53" as="geometry"/>
                </mxCell>
                <mxCell id="38" value="" style="shape=image;verticalLabelPosition=bottom;labelBackgroundColor=default;verticalAlign=top;aspect=fixed;imageAspect=0;image=data:image/png,iVBORw0KGgoAAAANSUhEUgAAAR4AAABsCAYAAAC8VN2oAAAZ8UlEQVR4Ae1dwWvjOhN/f0xhWdhSsru8frS7+0jL69JtaR8lhGUDbSBLCA24ITQ0NC2F9NBLL3vqpYdeeskplx56ySn/13yMZNmyIlly4jhpModgx5al0czop5Fs/fTXyrsc0I90QD5APpClD/yVZWFUFjk3+QD5APrA3ALPx9wWnOQ+TRyNpZUPNRhqMOQD6fnAbIHnSxGeK0X4rQ73ciXod7ow7JzDfc5c2Y/rh/BwXIfnCv897GxGgcoxn0QOZZJZrcOM/u/tVAJ9ML0cl+H2W1QvI2l8/T1XKnCt6nu9AE94v/gjqtt3OVDzeSz8gJMPUXtdl9A20Xx/7VeZjPdfeFo1H2FP9blEdkqi/zm36dTqnURHKaedLfDseDDseHCtqdRt9RxeqgX4pbnHDPGlAq8ITu0rGLT4r1/4OtI4rPmY8jddj5F5Hhzk188LGHZuAp0MWjcw7HRhUDmEHb9OPE1XSiN02IT7z1HgKBYvYNi+gYHGTiNltbGzuICHjTCPhwbm3YV+IQS/x9YNDNpdeN7h6ZLIMxUdz7lNp1Jnk39ndH1ugcembOasrQqcZqSoQJ45d1Kml0Y5Atg7ux4MOjfwlJcbuh7wg3r6er2rdWFQrkFfel6k0ZWF6YfNShDFPjS60K+fw7BW4J0CdhhtD3p1FXjc5BFlp3qcc5umWtes24uhPAvw7MNT6wqeisfQb13Ba60Ip/kqvLDzEpxIma5+PoLH2jnvRZtNeC58D3pYobi9fBl6Td67vlSOoLirRDzb1WgvXC9BUSpD5INHndMH9x3zQZmf6pd+mefQG0dmX77VDV9H1QL8Z5A5kG+K9/V6OYTnThdef/7DGj9Lo4lgRuXjzz3vbAECiHhepNOVtcpsGg6R8bnnAg6dz+DuA7fboFxi+UUjnkmBx91XrX44RfsI3S370QI83PEGCBLYsDo38Fo+guK3Mrx0wh5r5bM/J9Pw4OHgCO6Pz2GA4X1Zmhfwh0aDegXudo/grtSEfgOHBZLDsbE2n6/pNW5gqPTcK++4c7GhFQvr5SHFFQRDLWs+ORAyC3luC3U2dEsss++kvDHjUEOqzwwcWAcGWFe0V3//72TAk6/BwJ9n88o3MPRKsCfVSVsWix4u4GGdR1ccsH7AvYflb8EfD/1mH55GhlqT6s3RV138UKrjsgPEtOrvBDyiZ2K9lz8ul3vA09IVDNs1aEsG+69wDkO/l0PhWZpWNTI0YtcMDVXr1JjP7hHc7h7Bn+oVDFse/PH/47X2Bm9YsrKM+aDMylDt6/7ZRDJ7B0W4/RLOZchyZHXO6tusgJfbhD38rf+ARw/nwjy49id+WZrOJfSDSWV/gv7g38gcmay7VQYoPGoRdZHvi2srWuD5B/bQH2pn0Gf2FpGUPPSzyxOUIflZeC2aZ6yvJvDDMH8uK/1PRw+pAM91tTsanSgOaE6j7+m0Ti05nO2+cBBTOiZP9SjS0FY2yvCKk6N+b51UZlHmLI+svuyNIEZf/q95Bn++hJ8m8DT2ho5RShABsjeE4TwR1lGrW8XuQQflR13D6iGsvouChKs88XqN5mkCnrdo0/h6pwMEWZex3MAjGmbkuADAI4aoawX2WcKL8raPN3Q94AcO+IE/2zv4yiOn3A94bHZhUAqjIlfgQbAJ8sXO4/NxZKjuJI/U6UTyCq4T8Oj1Mp/AtNzAozaIwIm5sd5i76iCQRvnZpRhsFNDZ/M7UtQkwLlxHEz4q2Uxx9dEPCPAs46RZThH6CSPYpvRRkbAM6qT+QQdlDMV4GETj81y9C2X8nbjuoKvWaNp2Lg/4RyPUK7W6TXOaUrHZBaRgfTcXu5/Qe+cVOava5uQfz9bY4/U159MDSbexRDJoHehXz4nF/1cQZ3nGSnrXQ743F49+DYLhzxpA4+3ewTXG6GduMyOwJPQD4U+6JiuX6cCPKt+7/hS+gFFnNDcKEKv1WVvQcSrZT5xewW9gy3Iv/8E+Y0iPDWuIm+BPq75E6K5TfBKl+x7kGCSdC06caxzeuEcLvlwmbk8+NzHtS24q+GEcxU8H4hcZBZl7h00+ZyK9Ly4l+VRp5db/LamVQvqxdLgxL+YgA6OYWNGwAjmdwQw+1+Ci5cNLJ9gInsLPP/N4Ks0HHMHnnh5hA7ZB40s+grBjd9zA54kNhVl0jFd0EF9pgI8mNFJ4Yx/SRyE5FVor0UFbh/j63M/fG/V4fog+h0PG9qI++pRiU50DUw4iGs+IzI3PbhTvty1ySzKnGfgWd3G1+L4OpsDCwcezTBKTKz78zvi9buoIx4fcJ7H/0xiJJ/2JfR+Rr/fcgeeGHkE8OEyDSPAuwEP1sHVpnK96TzalifVhwV4khfmMtzYU6KXSSsx6fP53CbsKGuM1DxdZP64FkYM6vP0P7kvmXSWlp5dbGqSga5PZs/UgYcMMplBSH+kv2XwAQIeKYxfBoNTHQnY5sEHCHgIeIK3ePPgkCTDcgAjAQ8BDwEP+UDmPkDAQ06XudNRVLMcUU2cnQl4CHgIeMgHMvcBAh5yusydLq4nlO/t5Gb/JbgsD52nF6nNLfCkRdKeVj6L6nTzqh++nCZKw7GoNljGes0WeEwk244k7UT2Ht8DjaufEfL10mGEACyLhoKEYQFdqhSVsuUwGX2A6lIWY95kvEaaTQskuW06cynLlgfeTysfl7ImSTNb4GErmfX0DFaSdn/xI5G9G8BnAv0UC82QghaXrijLVSZxOKdnmew38LQ9WjctY0CCBu5Uvp+fraxfB8hlLZZ66P3YtTxbWVnn41reuOnmFnhsFWLrhBQGQdszqdyPActU8k+pEaWln7QaRBLd/MYFwgqVh3g+S3niyioyhk1cZPwP/GY7exDwCBu5HC3A406gTWTv80H2LozOgMcUqTiS4WNecY0P77sQ5u98K0HPE1voXMFLtQSnygJiITfj1W53QV7hzvix/S2MeIQhc21Ht+SxyXNfu4JBvRTZhWM1X4XX1gU85j9xLm6Hsn4dVOBunbM68sWyYwAPcpU7lJWWzKGORyPJrO9ZgIev+CWy9xiCej9C4c6HYfcYDphSlJMqGb7LcMMn+Y8lzFfTHOBOI9EtcGSn5yvpL+HR3+yP3csdwoPPD93HZ9sX0Av4oqXNAtWyNAT+qxt8owKZn4gxK1aP+K4ormVJNhsbeBzLmobMss5nce4EPIJ/BSkO5HOx3QmRvfMeZB7I3tMiwxfOGBfx6MjCVMJ8Tv7ehDs5wsl9h9vd/ZFdR7FMxh3klYxbBE0sD1K4sKHRGZPplA3rPLiV5XMB3TSAR8ojrl6ol7RlFvad1TEV4NEqTaHANKfRRwixQwXBomcaSkgGNeXD5FlAsnfhSKZ6i/viaEuntZvcMC06XPEnuV/Kh3AisTuK8iNHwQMk7ToauW8Z+rnYVOTHiM68c3jtXMHzjp7OJK7uIh88Mh1OGOm6lJWmzLL8szhfbuAJ3kiINxN4fNtk78KJbIDimi6uQbB7Fh1iOb9VkrjmGTx8G23sYkuk2xhupDTkYXXP1zgpnRdySAudiGNcWSINHrMCnpUUZZbln8X5cgPPApK9CyfKDHgsOhTy4BFJ4k7yJXhGHubOGagAo2UrlKJXzCMODNg9R3n+oAyNizcV8aQps2yXWZynAjxE9s7neFzYF7MycmrAg+TohiGtC2E+1neE6U/Zv4zpJObbHVlnccDjKg+fLzmH+8858Mp8Y8jrKc/x6Anqw7dLcfXC+qcts6zTWZynAjxE9h7HBRw6V5YGjgMe9nWrT/BuI9XnHMeX8HzwnRP543Nr/DWyC2E+fx5fVf/j78/1D3iMe7sJ97lQNww0HL7L4t/4nMFDfsvPLxyyucgj3hC9FPk+8isf9uG51YVB9ZC/1ZIirLiy0JZsp1axMYFEnq/S6JoJ6sP6x5WVpsxZ+mBcWakADxYwQpzeILL3OMVP+14c8LDeVTs3o49ubisSST8+Jw1nRuxuI8xn5V7C8/5XaXEq30s98u2OBAARXa3tw1PjJtw0QJnUtcnDhnON48h3PF+36zDo3EBvNwQxVmZMWUy/Bh2Kt71CbjNBfQg8KzFlpSWzkGcejhbgkRRjcgTlustwYyT0VvLIWjFE9p7czqqNXHSIaUS0JD/P9+sKJ/Xle+Oeu8gzbt7jPJcWQf04Zc/jM6kDzzxWkmSaHFimqcPr8iUMakXjtzvTLJvyno1vEPDMONoix5+N45PeZ6t3Ah4CHmmuZbbOSGCwPPon4CHgIeAhH8jcBwh4yOkydzqKbJYnsjHZmoCHgIeAh3wgcx8g4CGny9zpTL2gep3I3hc3Mppb4EmLhDytfNRGsSj/51U/RPa+uKCDbWe2wENk71ONNojsfbLGayNOX839C3elOvS8S+hXq/Anvzm2PW1luXZ0aeXjWt646WYLPDH8xUT2PlmjETw445DhE9k7133sws31Erzgkolmk7Mh1viykpefW2OBT2xZCaYD0spnXEBxfW5ugcdWAbZWxmFRoS2fxPdjwDJxXgkcKmneaelnFo78FsjehV5OJBsyNkNl7Zir3UR+v6T8XJ+V06WVj5znNM4twENk73t55AjmROUvlSMo7npaXuXVDSJ7H7TOoVf4PrLKexHJ3q9LdXja91e4C7BQWDetDZbI3k1hPZG9v3a6IMjM70pN6DcwpB6law1XK4/eszqgcNyJj7yjGODOBW0k25J3Y7iCgOCcza3V4blShx6u9Dbw7aDcsT2oA7k62yFC0uHtApK9C/tyBsUE9iey93jgkQne5XOx/J/I3rn+iOw9B8tI9s6AZ+2Q8/qUf0xljofI3nd4I0OOEAE82l5RCTvNafQ9BIsgYnpi233RC5nSMXksROVJZRZlzsPRVG9VNls6rQ78yMxFh2KSe5HJ3lGn93Uzk6Gqc93/OD2L9NjmBikR1Is8Z3W0zPHwoZYc5cjnbx54tEROIS+M1hne0uRyDHALh5sYeCw6xHIWnez9unrFNwnYMI0c7Ne1vqYOvYnsPQeLEfEcxobFWmcg4Al0xvQjsREKMDMdF5HsPQ3QQX1pfU0BHiJ7fxcFHiJ75z2aC/uiqVGmfd0WyYjybOmuiew9QpMq9IbH0xK+aLiAhy+cg1q+p54T2Xs06ktlqEVk70T2jg3t49oW3NVwrqMKnt9bLyrZO6/XFfT2Ben8ZkD+nn8fbWRE9h7VB/pKKsCDGY2QbBPZezAkUXu/LP7HRTIsrNfOzRDZe8Q2MQTsTL8GHYp5UJEXkb0nBp7RB4QyTUeX4QaRvSfXq0nf83LdhVydyN4Xz+7j+p8l4iFFjatYes7dd4js3V1Xi+JXBDzKm4NFMSzVY/ka81uyOQEPAc9M56LeUmMhWdMDcwIeAh4CHvKBzH2AgIecLnOno8ghvcjhreqSgIeAh4CHfCBzHyDgIafL3Olce2kie1/cyGhugSctEvK08nFtLG8t3bzqh8jeFxd0sI3MFniI7H2q0QaRvU/WeOOI0/d2KoxIDcnUIr+Df8eyaVxZSTqztPJJUuY4aWcLPDErvYnsfbJGI3hwiOx9fD3GrRiPEOIj42MLqTG6MEywWl9usHFlyels52nlYytn0vtzCzy2irG1MkT2buxd09LPLBz5LZC9q/75++cFDFtncPd5PKBLS89p5aPWL+3/FuAhsncie9cvHBWOuPr5CJ7ql6zHXyayd1F/PHLQ8eA2lxB0iOzdpDAieyey9xjgIbJ3+FVETp5z+LPxP2P0KYNU5JzI3uOBRyzzR9ZB+VxQnxLZO9cfkb0vH9k7G9oIeoyWN7WhFpG9E9m7dnubSE82B98GxfHxyLLa0sXNGbB7FsJ8Mcm96GTvq7kf8NjowtArwX9j2D9Oz8JeRPauUJ9qlfYWdpkQPVXkSGTvwtHxqLWt37DYvYjucC8v/IU6xDwWnexd6Itv7aPfNUWkMR3j9Bw8Q2TvUc5lrdLeAvBYXn2a6zWecwUONEaPmPRZWyQj8rOl0+pABh6LDkU5eFwksnesy84HZYoi5vMQWQ+68zg9i/RE9q5EPET2zh3QhX1RONG0jzZAEeXb0hHZe1lL9o4gMCjvRyaU+dfW+k6JyN6jIG15ne62rxaRvRPZOwLZMpG987dZl/C8y8nei99K0Gt1YVCJghHqhcjeo6CDOkkFeDAjIntv8vkNaYcF1MusfnGRDAvrtXMz+lfntxV8ZSzmb6Jf547YvTn6Zqd9rDzfuYTn/a+Sbvbhqd2F15LDcoMYAnatHyry4ATtsHEciWK+btdh0LmB3q7yStxSllqv11oJTjQ2J7L30XZgAZ7RB2wNyWW4QWTvyfVq0/us7y8z2bvLKvqPawqoaQBq1jbMsvzUgSdL4amsxQAwIntfDDsmaY8EPEve8yRxFkq7fAAxLZsT8BDwSHMt1LCm1dAo36hvEfAQ8BDwkA9k7gMEPOR0mTsd9f7R3n8Z9UHAQ8BDwEM+kLkPEPCQ02XudFn38C6vu7OWadnLm1vgSYuEPK18lt1R3mr9JyWNX2b/mWbdZws8RPa+eNGGyaYziiz/eF0Y1grj6TlXgj77Yvsc7g3sglMhV58HHTrUfZLOaLbAE7Oal8je3+gEZIxNJ3HUsZ79UoHXzg08bY+vS5sfuqwqTyz7nOjQVvfE9ZI6n7kFHlul2FokInsfryeXHMCm58T356TRoNxxpPGJ62XQ2SIDT1o60uVjAR4ie39zZO+MQLwJ91/24cnj26681qtwq+x+gCTtj7VzTtLebMJz4TvsKI3r47pM5H4J/eMjKCpp4vXj7j+2sth2MvUSnH4rQ6/J6/VSLcLv96ZoxrzwdCeSRwFOtqswaFWhLerG/vMycNuaQb0UrbcjSbuuwemuxeswByuONo3T4c6+J9WD26Vf8BfqYn0bFTjF+tvq7uvIxX90dRXXLMBDZO9vi+w9ByvrZXjtXMGr14THgyO43S3Bc7MLw1YdrgVxlU/SPmx48HBwBPfH5zDoIL/MjzCCWj+GF7zmVeF+9whuC3VgupBpH9hQpguDegXudo/grtSEfgNXogtOGkf/cSiLRbjNc+h79Yg8OH+jAiY69+p2DQadS3j8ogCTKMsocw5W2BwL36iv17iBYUPh5HEkaReNLPZo1aGjTUW9TPbKoz58u+D8TfsmoPBgE/BeCfYQVGx1xzQu/uMDlKnuTsAjE7zL50T2HnXqeSB758DThd7+3yGIfC4xEOntcnldyPn5Tpkl3gv6TrRzgNQfAlRywPJpVSNp2LUgjRufk0tZDHg6TbhbC3XO5TmDOwGokrPf1vT8xyc/L2HYroXRzTu/HoHMYf7YaOLoRfD+pEMtuw4F8MTb1KpDNll8AX8w8s3X4LXqQb9xzCI5lCHS6fh6NNWdyazo8L/COQw7elvowCcV4NEqn431Q+5dc5rQkWUBTZUWaWz3bemYPBai8qQyizJnemQRT6h3Lks0tDbXS30u2ghXlPkbcz7Cpm7Ao9WXUpbW3oqPBfl8KLC3Uf3CZgi+fmOyyxyts7ZcCeC0+Un3A5kM17TPK3XnnYlqm6hNteUo+Ty1b+ApnwOMcPr7h/DUrIH37m+4q3VBpytT3c0yqzJGdSnLuNzAI5NbBeeh8swKFg3LrFhZyZmea4EnKqe5XmHdcQz/jMOMQC+CCCysuzkfkcYNeFzK0jYCA/CI3vdWEwnZZY7qSluuBCLa/KT7Nttrn1cAQw88UTlddHjvdaG//zecli7gKb8J9x5+JrAFD00OSKqsprqbZQ79R81L/b/cwGMhKjcrWDSsqPFV5c7kf0rAg06KcxuRyVulQdj14wY8LmVpG4EBeBjLoMG2Og7puN0htOVKwKLVgXTf5gPa5xU9uwCPiw6RG/3153e4q/Hvkq4rV/CURxvpv1My1d0sc8bAQ2TvHIBc2BdtjjjxfQfgsduLA4aYwxMyre56kTke1oib5QjdZ5Tw3AV43MpijUCZh+Hy+PMWorFbvt3h8l3Aw0bYabCPDJW8RZ1NjU/c1zZCIYt0NJG923Uo5njiGrWbDhn3c7UCjw0cYnEu6H6pAq9t/l/USRxNdbf7T6hbkZd6TCXiIbL3OSJ7dwAeF3uxxogRjz9c+bheZGTm8uQyjxSuoHewBfn3nyC/UYSnxpUETi7AkwOXslgjaF1Cr/QDih8+wdfP/gZ6zQr8lht4+QaGlu+7WESEb+zwVXnnCp4rZ5LMSFq/CXs5/vNKlzBsVsDz/6u0vfxboTN4yHPS973cKMVpHNm7XYcuwOOmw5XtOgyxzuIN1nYdXltXbBNC9kaLEfbb6+7iPyrQqP9TAR7MdIT0u1GFtvQGAtNEyLHx9e6B0oNWxTyC5qi80jShMZbDeqGRuQk/TymfEZkVYnAXmTEN/pwIvaUGIp5L/egAPFjmSN0Ve61ulKDfkuyA2/MWo/bCfOJt6gY8LmUJe98W8e2JL1erCfdS5LLyzvztjqrnkzx+anAE3von0E6aizLUo+Q/LE8LITymsflGvA7dgMdFhyuf/U8kxGcTzFein1GM3XYU/1H1rf63AI89ZFIzdBluqL2GmkfW/12Iyl1kfouE3jZ78bVIn0beDqk2ctGP+oz6P64sATy/BNCvSZ8L+NdWDXM+ajnq/7g5HjXtuP9dfGPaOhxX9rjnbP5jejZ14DEVRNeTgzjpLNSZCjw63biSxn/d2GfRDkY8twcVHtmNuee5Tg66FtrNpAsCniyGP1SGNWIyOai4LpZMqEs2xP0kR5YXznX4v5dqCU6VaYEk+VFaO9CoOiLgIVCYGBRUp6L/yRvisumMgIeAh4CHfCBzHyDgIafL3OmWrXen+o5GgAQ8BDwEPOQDmfsAAQ85XeZORxHAaASwbDoh4CHgIeAhH8jcB/4PAudT6aia6e0AAAAASUVORK5CYII=;" vertex="1" parent="1">
                    <mxGeometry x="-247.16" y="428" width="145.65" height="55" as="geometry"/>
                </mxCell>
                <mxCell id="40" style="edgeStyle=none;curved=1;rounded=0;orthogonalLoop=1;jettySize=auto;html=1;entryX=0.003;entryY=0.561;entryDx=0;entryDy=0;entryPerimeter=0;endArrow=open;startSize=14;endSize=14;sourcePerimeterSpacing=8;targetPerimeterSpacing=8;" edge="1" parent="1" source="39" target="20">
                    <mxGeometry relative="1" as="geometry"/>
                </mxCell>
                <mxCell id="39" value="git status" style="text;html=1;align=center;verticalAlign=middle;resizable=0;points=[];autosize=1;strokeColor=none;fillColor=none;" vertex="1" parent="1">
                    <mxGeometry x="-313.16" y="395" width="66" height="26" as="geometry"/>
                </mxCell>
                <mxCell id="43" style="edgeStyle=none;curved=1;rounded=0;orthogonalLoop=1;jettySize=auto;html=1;endArrow=open;startSize=14;endSize=14;sourcePerimeterSpacing=8;targetPerimeterSpacing=8;" edge="1" parent="1" source="41">
                    <mxGeometry relative="1" as="geometry">
                        <mxPoint x="124.99999999999977" y="363.83488554113046" as="targetPoint"/>
                    </mxGeometry>
                </mxCell>
                <mxCell id="44" style="edgeStyle=none;curved=1;rounded=0;orthogonalLoop=1;jettySize=auto;html=1;endArrow=open;startSize=14;endSize=14;sourcePerimeterSpacing=8;targetPerimeterSpacing=8;" edge="1" parent="1">
                    <mxGeometry relative="1" as="geometry">
                        <mxPoint x="-298" y="383" as="targetPoint"/>
                        <mxPoint x="-298" y="333" as="sourcePoint"/>
                    </mxGeometry>
                </mxCell>
                <mxCell id="41" value="" style="ellipse;whiteSpace=wrap;html=1;fillColor=#f8cecc;strokeColor=#b85450;" vertex="1" parent="1">
                    <mxGeometry x="112.50000000000003" y="398" width="25" height="20" as="geometry"/>
                </mxCell>
                <mxCell id="42" value="" style="shape=image;verticalLabelPosition=bottom;labelBackgroundColor=default;verticalAlign=top;aspect=fixed;imageAspect=0;image=data:image/png,iVBORw0KGgoAAAANSUhEUgAAAR4AAABsCAYAAAC8VN2oAAAZwklEQVR4Ae1d3Usjv9f//THiwi4sj/tdBGWFLeKClFWEuvRChFKouC5FLLT4QqHiWnrhgkIRweKNN73ojTf9885DkjmdzDRv06bTF8+FTJ3JJCfnnHxykkk++d/ShxWgP9IB+QD5QJo+8L80C6OyyLnJB8gHmA8Q8FDERxEv+UDqPkDAQ06XutNR1ENRz1wDz8fMJmxn/hu74fjKhxoUNSjyATcfmH3gyeWh/pCH7XhkkjmEu34TOv1zOMnoK/sxuwdn/8pQfxB/1dK3KFA55pPIoXQyx+swpf/XS6WBPrhe/hWhmI/qZShNoL/6QwnycX1nf8EFe97IRnX7YQXi+VSvsrD1NWqvfIvZJppvpnLMZTzJibTxfNCe8fcS2SmJ/mfcphOrdxIdJUg7+8Dz+xQ6/VM4UFSq+HgOd4+/IKN4xg2RK0GbgdNbA9o98de62hhqHNZ8dPnr7htkngUHyfy9hE7/Bp4CnbR7N9DpN6H9uDfQjUjTlNKgDqtwko0CR6ZxCZ23G3hidvoUexYr6+mNdRaXcLYbpjvrsrybcHcVgl+1dwMs7fVvkS6JPBPR8YzbdCJ11vm3h/tzDTw2ZXNn7ZXgpwdF2cqKPJ9xJ+V66RYjgP3l9yk89W+gXpAbuhrwI3X9sAJHL01oP/yBlvQ+plGVxdJ3eqVBFHvWbULr5Rw6L78E8LEO4+0Ubl/iwOMmD5bt9TrjNvVa1xTaiwfg2YGLXgPqjQK0eg24f87Dz8Ix3PHfh7Al9YDLP3JQfT4X0Ue3CvXG9qCHRcWtHhThlveADbh7yMFG3OCF40H0wqOYl8NIA8J82FXl9IPnjvkwmS9e6kGZ53A9isyBIZd3Ax09Bg0sBQMP6iuVpdbLHlz3m3D/9zu3CU+jiTQjeX4S713/3gQGIPg+plGVtcxtGg6R2XvXV2zoXIGjr8JuTw+HPL9oxDMu8Lj7qtUPJX1iXekaRrE2XXgAHuF47cccZHIFuOvfQPshB5l8Ee77YY+1hHMp3VM4q+Xg5N85HwY9PUjzAsHQ6OmlBEeVHBy1qtDqsmGB5HB8rC3ma267N9CJ9dxLH4RzMVASYb08pGjAYKhlzWcFUOZ2IE/xqszrlFjmwElFY2ZDDak+U3BgFRhgXVu11WTAU/gDT8E82/7DDXReDyOdibIsDjyXcBYM2QRgZeHktQmt2iaUX5nf7EB9aKg1rt4cfdXFD6dgN1tjnqfn3oAHeybeewXjcrkH/NlqQOftD+xLEdB64xw6QS/HlMbT9I5hT0rD72kaqtKpWT6VHBQrOSg/N6DTO4Vy8D+7l98VDUs2kjYfJnNsqPa5VhlL5v1aHoq5cC5DliOt36K+JdjLfIN19pfNQvWVzYWdwkEw8cvT9OvQGkwqBxP0Vz+0wCIiGRG1YF2UulUCz3dYv2LDrQq0mL0HkZQ89LPLg+WqrxidiTyNvprAD9Vluff+7/H91IDn4LE5HJ3EHFCfRt3TKZ1a6olsz9HgunRcnudcpKEt7bJILuytk8qMZU7zyuvLvwiy6Cv461WgnAuXJog09obOopRBBMij2nCeiNVRqduY3QcdFEbFj3uw/CEKEq7ymPUazVMHPPNoU3O9Zw8ECXh0jePDCnAHxIYZuS4A8OAQde0XtPpNuGtEv/aJhq4G/IGTfxXv3l5tiMgpk4WLXhParTAqcgWejvRFjeefLUSG6k7ySJ3OQMbIPQIetV7SByYCHhvwxBtExJEDcMJGjM94j25ptJh2Ctc4GPC5mdgw2Kmh8/kdKWpCcO4WBhP+8bK44ysinmHgic4ROslj1SUBz7sDHu7c3SJsSc4R/7qRD4Zjcho+7k84x4PKVTq9VL4tHcocXye0nlkbDL+Syvx5Y7rzO6zOQ3oJJlPvpDVOLg1dzMlFlyvE53mGymKLCvncXhnygS3YkMc38Oyx+bxcaCdhazfgSWpT9CO6ukdOqUU8y0HveN/KQoZNaObycMsWk0lfQT5X2MRtA25rm7xhf8nl4aLbiHwF+rgWTIhmvsFeqw6drjRJuhGdOFY5PTqHSz5C5lCej2ubcMQmrN+OYS9oNC4yY5nrtaqYU5Hex2dpXlV6KT6zyeVw8l8ATwWOcAJ6cA0bMwOMwfwOAnowT4MfG0RZaKNN2L8q86+Z8nDMHXjM8qAO+YJGHn2F4CaeuQFPEptimXR1Bx2mq9SAhxW2dVURK4mDkPypewz7a1GB9/+xz+c44VmGg1p05bJ+3mV48lrVwNBBXPOJy8y+kh39SCYzljnLwIMdQ6smgEUAj2IYhRPrwfwOfn7HOrKrDEhD+bzV4fZvdP2WO/AY5EHgYxGVFuDdgIfVweaHcn3pd7Q9uOjDA/AkL9RluLEei15cKjPJNF8y32A1tscoXp6LzB/Xwogh/j79n9yXdDrzpWcXm+pkoPt6e04FeMggeoOQbkg378EHCHikEP09GJzqSMA2Cz5AwEPAM/hCNwsOSTK8D2Ak4CHgIeAhH0jdBwh4yOlSdzqKat5HVGOyMwEPAQ8BD/lA6j5AwENOl7rTmXrCpM9WM9NfCZ5UZkrvZQHh9MJGXyTtvvJZVIeaVf2I7TRRGo5FtcGi1Wv2Ix4dyTZSKBDZ+1gRy6hk+EPk662QrzmtRsIIwzrPw2yOfDtMSgtQXcrizJuc10hxaEGCiNulLBfd+8rHpSxdmtkHHsNObytJe7D5kcjeNVHpGPrJXFUHFLRPbItLfId+ggalc07jfS57lPsH0yv5dCYkj62sTO1U2iY0HmOBrSysv+3qKx9bOabncw08poqxZ3yfUIxB0PaOl+cGsPSSv6dG5Es/03DkbbZBWNrUKus1TXlMZWX4Lny2yfg7bPPTNgh40E4egMedQJvI3meD7B2Nz4FHF6k4kuGzvEyNjz13Icz/cnAI1694hE4D7h4PYS+2gRjlXvok+JjlHe5L2UN+2ADn2uabjGWu7eiRPDZ5Tp4b0I4dIrBcOIb73iVcFP4D17IytRIcZQWro9gsOwLwONbLl8wDHXvq3HT5eQAeseOXyN4NBPWBEYXzsR3WIzigN0fwSIYfyGQEnmAuzkiYH6RBkv9irQi3vegROLIDi530dagGh/3xZ5k9qAb80C327tsl3A74oqXDAh3kWeb0tuycr5CVsdprwhPS4LqWJdlsZOBxLGsSMss69/3bG/Ag/wqjOJB/43EnRPYu5llmgezdFxk+OqMJeFRkYXHC/CU+NK3CkRzhZLahWNkZOnWUlcm5gyQeJ5QDr2PLwyhc+NCowmX6yYd1p3Agy+cCuj6AR8rDVC9Wd98yoz4ncU0NeJRKi1Fg6tOoIwTjUAHneHRDCcmguny4PNjLYfoFIHtHR9LVG5/j1ZZOabdAXy46XAomue//7cG2xO6I5UeuAQ+QfOpo5Lll6OckTyA75xV6PYf7fgOuf6vpTEx1l+XiOhwz0nUpy6fMsvy+fxPwGACKGxpJySLX+SZ7RyeyAYprOlODcNEhK2e7ESOJ61Xg7GC4seORSEUDN5IPeXjdkVP6taBdsmAqC/XHrmkBz5JHmWX5ff8m4EGnUERG3KkWkOwdnSg14LHoEOVhV0YSt104hDrjYe5XIA4wSrZCjEblKEthT5a/i01RnjKToXs5VxGPT5lRD5O4pgY8SJwuE7kT2btmfU2sIU3C8CxPX8CD5OhxUnxWBto9/kwmzGfphpj+YkNargPD2h3+3AF4XOUR8yXimOX9B8azPfk5HjVBfegjtujKt8yyTn3/Tg14kNOXyN7ZF5eQLN63QZPkZwIevro1IHi3keoLjuM6XNe2BZE/e29NfEZ2IcwX77NP1d+D87m+B5zHVTjKhA2Pg4bDuiyxxqcCZ4XNIL9wyOYiD34hum+Ic+SXvu7A9VsTnhSRm6ksZgt+UiseTMBOzQ10GqfR1RPUh/U3leVT5iQ+NGra1ICHCRgnTiey99CpRjXgOO+ZgIf3rpF5LYloXTGMOXi4BL6CGd+RGmnc7irC/LxM8s/zYEAWfs5Wrt3RRYZrO3DRvQkPDYhN6trk4cM56WwwpuPPpTI89W/gNj7JbCiL6xf1Ebvi1160n56gXvIRQ1m+ZEZ5Jn31ADySYnSOELtPZO/JdTZpR0gjfxfCfJYGoyVZJjEsDyf15Wej/naRZ9S8R3nPF0H9KGWn/c5UgCftSlJ58w90+Yc6tJ/z2q9LZOP5sjEBTywaIweeLwcme82nvQh4CHgoiiAfSN0HCHjI6VJ3OopS5jNK8Wk3Ah4CHgIe8oHUfYCAh5wudafz2XNSXvMZPRHwEPDMNfAQ2TsBT+oO7IuE3Fc+i9r7zqp+iOx9PkGHtZPZj3iI7H2igE5k7+M1Xhtx+vLGDzhqleH2tQ6t52MoH4x+HI+tLNeOz1c+ruWp0s0+8Bj4i4nsfbxGgzw4o5DhE9m70L1x42b2EO7YVoleVbAhPl/ybRz3fzdH6kyMZSWYMvCVjwpQXO/NNfDYKsn3yjhsKrTlk/i5ASwT55XAoZLm7Us/03DkeSB7R71sfQo7CM5myPaOSfdc7Yb5xXf6u76P6Xzlg/mNcvUAPET2vnpQhNuuICq/e8jBhgZ4lneJ7L3dO4frxvZQj7+IZO/5VhkuKsEOd+xAYqyb1kZLZO8hakeVRWTv7X4TkKj8qFWFVpeF1MN0reFu5eFnUZ3qdO3jPpG9s+GPiXweKSZ8kr2jfQWDYoKIh8jedU4vgEcmeJd/4/Z/InsX+iOy9xV4j2TvHHjW9gSvz0N2KOJDYDJdbUMkInv/LRoZ4whB4FEqLRZ26tOoIwQeQSi4YdB4tue2dFweInu3MhUq7RYMLVx0iJPci0z2znzt5EXPZIi+aLqa9IzvsTb35ImgHvOcxNXDHI9bxKNU2jwAT4zAqcP/D3lh9PVSg+UkjDhqnuMCM5ar1IEMPBYdsnwWnez94LEBnf4lnO3qRg72+yY9oy2I7P3DCixExCMx6Q2MixOFSB4ej7o0k8uq96d5LzXgsehQ1sEikr37AB2mIxfgIbL3GPAgyTaRvY++gExuoD5++wIeInsvgu4T916LfWi4hLOc4KA22Y3I3qUe3aQo8cxtqEVk7yvgxKubSPf28NxkPxPwENl7E8Ylexf2bsBtDUnnvw3I3+N2IbL3xI7vBjxM0XGSbSJ7Hw844s6b9H8T8PCwXjk3w86aGu7hiewdyfDDuT2uX40O8csv2sypUyKy9/EaDJG9j6c/dNZ5u7qQqxPZ+/vwDQ9ftd6HouatkS+avET2vljtjIAn8dBysRxg0QCK6jMf/knAQ8Az0ipaauDz0cBn1U4EPAQ8BDzkA6n7AAEPOV3qTjervTDJlV4UR8BDwEPAQz6Qug8Q8JDTpe50PiMLIntPL0rxabe5Bh5fJOS+8vFpmFnKa1b1Q2Tv8wk6zLdnH3iI7H2iEQmRvY/XeE3E6eulEtQfysN/Vz9GsqmprCQdla98kpQZTzv7wGPY6U1k7+M1GuTBIbL30fVo2jEuE+K3e4Ia94ltoUiwW19usKay5HS2377ysZVjej7XwGOqGHvG98oQ2bu2d/Wln2k48jyQvcf9c/vvJXTeKnD0YzSg86VnX/nE65fkfw/AQ2TvRPau3jiKjrj8IwcXL3UQvf77IXvH+rOrAJ1TONhICDpE9q5TmNid3n7MQSZXgLv+DbQfcpDJF+G+34TBLtxMcMZQ9xTOajk4+XcOnCRd5p/NlcS9lxIcVXKgJE7ncz5i3HzbvVHslPZIZh7IbCIGx+EKkb0P71jnDc9Fh0Ea1GGxVoTbHjuPqgTbiq+OgmKlDtWc5JOOpOhLDvL4JnsXlBfnUN5d00afMkhFfjvWy7fMERkUNhj3uYeIx40Wg8jeRSMhsvf3R/bOhzZIj9E7ndhQi8jeiexdebzNuL2E7/dNfDxyWbZ0pjkD/sxCmI9R46KTvS9vZOGi24TO62HyyMeR+pTI3mPUp0rnJLL3kRxQBoVxftsABfO2pVPaNgjP+TPs7SPXkDCflbPoZO+oS3G0T0gWhvddriY9D94v/AH+5ey1oPUtp3wmMLwayOhnHY/bUEtZ2XkAHsunT329RnMu2TiT/m0DFCzflk6pAxl4LDrEcth1kcjeWV1Wv0rzUEwnhuUhsh5Uv016xvRE9h6LeIjsXTigC/siOtGkrzZAwfJt6YjsXT2xzkDg6WEnEnmI1dbqTonI3hOFWW4RD5G9E9k7A7KPa5tw9MwOtjuGvcDPBN/wJVwUvgdk6N9h/x87naEKR5kwYuCdl8O6LLHGpwJnBSRZD78mCT8UBOw6efAL0bhk7+JrVh2uK0KOTP4Qbt+a8PQYBSMmB5G9JwId5hRuwMOUS2TvVeAHAkqNjullWn+mSIaH9ZE5GSQzV6/ZIbJ31E80mmEAyudcAl22nw9h69OwzYnsPYWG4DLcWN9YnVqDVAGBC1G5i8wf18LeV1XOIt9z0eGikr277KJ/T77hYR3PMHovcuOhuk3H3kT2Ph29T8rfCXhSiPAmZTzKd7Ea43uyJwEPAc9MDWnfU+N7z3Ul4CHgIeAhH0jdBwh4yOlSd7r33NNT3cXwmICHgIeAh3wgdR8g4CGnS93pZrHXd/ncPYtyz6tMcw08vkjIfeUzr07w3uUelzT+PfvPqHWffeAhsvfFi0h0Np1S9Fl+bULn+ddoeg6IxTr9cziRtnfIYD4RcvVZ0KFD3WU9yL9nH3gMu3mJ7H1O17EYbCo7Zyq/OevlDdQLo+vS5ocuu8oT13VGdGiru65ecw08ukrhfb4XyWFTIab3dp0Rp/BWH9+RyAzpx0Qa70t/iww8o+rIA/AQ2fvckb1zAvEqnOR34OJVHLty/3IMB7HTDxhJe/X5XJC0d6tQb2wPDUc+ZmUi9zq0/uVgI7YJ0qwfd/+xlcWPk3k5hJ8HRbjtinrdPeZh+/800cynHai/NaHdGj7n6kskj1+wVTqGdu8Y9hGEC+x/UQa/vhxCBp+xqyNJu2vDNesQy7Pb1KTD1coptAf1EHZpXW0Im7P6dkvwk9XNVvdADyb/8QA8Ync6kb0bCOoDQ/AIjO9Sju5gdnU+b+myjIi/Ae3XKlRrOShWDuGakau/lSGPxFU4fjeR82cLnNC//XoMJ5UcFK/K/P8I7YOVwN/RfxzKErvtz+HutTyQhx0o0HlRz98oSeM5aIh6Ifn8SIcOOJK0O9nUqkMGPA42temQsxcGvsns/3YzoPDgE/BI2Wo9cGEFkFS/o/Efb8CDp0kwzlf59/3f7xwxiexd9LqzQPYunLQJtxWJASAAmtuAL9vFXuKkzEP4KUU4X2qM+iMEVp5P7xj2pDT83iCNG62KS1kC2KtwtBZGOEKeChwhoAadAGvwxWc1//HW3zp03v7AvlbmMH+WjwA8NRkYez7uUMuuQwQes02tOuQ+cAnlLItq/sD94yncdQs8kmMyPMknwsidaXe47lzmmA7XG+fQ6QtbpAY8SuXzsX7IvatPEzqy3EPYDG57jnnp0nF5LETlSWXGMqd65b1jqHchSzS01tcr/l60EcapPfX5oE3dgEepr9hckdKOMR8b5PP1F7T6Tbi7+jY0fLTLHK2zslwJ4JT5Sc8HMmnuKd+P1V10JnHbRG2qLCeWT/1NTLSzCKdV24N67w/sf1iFoxe1rnR118ssZCTgMfRYXHlKMqzQwHoFY8OKOqnS+BqHm1haJfBE5dTXK6w7G8PX2dlmQzoK667PB9O4AY9LWcpGoAEe7H2LikjILnNUV8pyJZsq85Oe2+ysfD8GGGrgicrposOT1ya0aqvws3UJ9cI3OHllywQ24ayr/vKnq7teZgKeQU9nVJ6FqFyvYGxYUePbnCyV556Ahzlpp1uMTt7GGoRdP27A41KW0o4a4GFTArozzFUc0qbTIZTlSsCi1IH03GZz5fsxPbsAj4sOGb3s/d9tOHoR65Lyjw2oF5iN1OuUdHXXy5wy8BDZuwAgF/ZFmyOO/dwBeOz2EoCBc3go03KsQWAj3pIaWpTw3AV43MrijYDNHUlzM0KeYN4CZbCs3RHyXcLZbthp8EWGg3mp8D6rt67xoU6UjRBlka46sne7DnGOJ4xGsezw6qjDxiV0HktQ7bIhluCCbrVKcM/mayRZMV9d3W3+k9pQi8jeZ4js3QF4XOzFG2O3CD+D4crHbF4cPSw10M+VCnT6Ibn6l1weLroNaQLaBXhWwKUs3gh6dbhtZWHj63/w+UcWqiyyiR2FzBuFZX0Xj4j6TXjqNeCp34DrR1aPMIrlq5Ez3zg5/V6rDp1uCfaC/+MUuCby+UEDZg2eD1nLkI81cLsOXYDHTYdLpTJ02DIB/IJVKvNlA/IhhC51t/lPasDDFExk7zNC9u4APC72Wt49hBb7DI9zPOx43sZppIGyfMSJEUG6XhkOanIaN+BxKQt73wP+9QTLq8KJFLksGdbuIAjgdavAlhrkYD/739B5WDyKwXrHr/GvPGs7cBGZCwsBDMuykb2bdegGPC46XAo+uQ++YHFfYcf0ZAdTE651N7V3D8ATDTtRkaary3Aj3muY8kvjmQtRuYvM80jobbMX7wHX/hs4ps4eLvrRvYv3TWUh8OBCPlV5OPQ6Y5+MY5GF6X/THI/pvSTPXHxDVackZbC0Jh0mzcslvcp/pgI8LsJSmmQNg/Rln2thOnIljf+8u8OjHRbxFGslEdnh8CMBYJFd1H5MwENOlKjnn+WGhFsmMOIZR1ael7Ql4u7xEPakhYnj5E3vrgABDwHPwgAPNWh1dDGLeiHgIeAh4CEfSN0HCHjI6VJ3ulnsgUmmdKMlAh4CHgIe8oHUfeD/AZ6sVkH2lAcMAAAAAElFTkSuQmCC;" vertex="1" parent="1">
                    <mxGeometry x="272" y="298" width="140.34" height="53" as="geometry"/>
                </mxCell>
            </root>
        </mxGraphModel>
    </diagram>
</mxfile>